<svg xmlns="http://www.w3.org/2000/svg" width="12" height="10" viewBox="0 0 12 10"><path fill="#56ACEE" d="M10.772 2.422c.477-.35.895-.784 1.228-1.27a5.297 5.297 0 0 1-1.416.383A2.478 2.478 0 0 0 11.667.178a5.02 5.02 0 0 1-1.56.597A2.474 2.474 0 0 0 8.307 0a2.456 2.456 0 0 0-2.465 2.447c0 .197.026.384.068.563A6.995 6.995 0 0 1 .836.443 2.437 2.437 0 0 0 .503 1.68 2.44 2.44 0 0 0 1.595 3.72a2.32 2.32 0 0 1-1.109-.307c-.008.017-.008.024-.008.033A2.46 2.46 0 0 0 2.456 5.85a2.56 2.56 0 0 1-1.109.042 2.452 2.452 0 0 0 2.295 1.705 4.93 4.93 0 0 1-3.054 1.05A4.54 4.54 0 0 1 0 8.614c1.092.7 2.38 1.1 3.77 1.1 4.529 0 7.01-3.735 7.01-6.977 0-.11-.008-.213-.008-.315z"/></svg>