<svg xmlns="http://www.w3.org/2000/svg" width="12" height="12" viewBox="0 0 12 12"><path fill="#DC4F42" d="M.004 6.007C-.05 8.511 1.71 10.9 4.132 11.68c2.28.75 5.084.189 6.601-1.724 1.108-1.341 1.36-3.128 1.24-4.798-1.953-.017-3.906-.011-5.856-.009-.003.682 0 1.361.003 2.043 1.17.031 2.339.017 3.508.04-.295.99-.967 1.913-1.988 2.271-1.97.85-4.484-.26-5.104-2.286-.749-1.939.477-4.28 2.5-4.843 1.254-.433 2.546.054 3.619.693a27.392 27.392 0 0 0 1.552-1.57C8.987.496 7.421-.116 5.81.018 2.65.055-.116 2.914.004 6.008z"/></svg>