<svg xmlns="http://www.w3.org/2000/svg" xmlns:xlink="http://www.w3.org/1999/xlink" width="16" height="17" viewBox="0 0 16 17"><defs><path id="a" d="M0 .895h15.218v15.217H0z"/></defs><g fill="none" fill-rule="evenodd"><mask id="b" fill="#fff"><use xlink:href="#a"/></mask><path fill="#009D98" d="M12.127 16.112H3.09A3.093 3.093 0 0 1 0 13.022V3.985A3.094 3.094 0 0 1 3.09.895h3.364a.895.895 0 0 1 0 1.789H3.09c-.717 0-1.3.583-1.3 1.301v9.037c0 .717.583 1.3 1.3 1.3h9.037c.718 0 1.301-.583 1.301-1.3v-3.4a.894.894 0 1 1 1.79 0v3.4a3.094 3.094 0 0 1-3.09 3.09" mask="url(#b)"/><path fill="#009D98" mask="url(#b)" d="M8.15 10.932l-2.97-2.97 4.948-4.977 2.971 2.971zM10.87 2.243l.579-.578a2.1 2.1 0 0 1 2.97 2.97l-.622.621M4.443 8.7l-.354 3.084a.239.239 0 0 0 .267.265l3.057-.378"/></g></svg>