<svg xmlns="http://www.w3.org/2000/svg" width="144" height="40"><path fill="#FFF" fill-rule="evenodd" d="M36.707 36.433l-4.358-3.618c-1.9 1.01-4.293 1.6-6.891 1.6-5.709 0-10.427-2.886-11.147-6.628a4.65 4.65 0 0 1-.103-1.009c0-1.958 1.086-3.742 2.87-5.094 2.062-1.556 5.011-2.535 8.344-2.535 3.323 0 6.362.979 8.424 2.543 1.783 1.352 2.861 3.135 2.861 5.086v9.655zm13.642-23.11l-12.9-6.957L25.95.132a1.082 1.082 0 0 0-1.034 0L13.387 6.366.567 13.323a1.08 1.08 0 0 0 0 1.9l11.47 6.19v6.125c0 5.029 6.01 9.114 13.42 9.114 3.098 0 5.615-.658 6.627-1.191l5.028 4.123c.704.577 1.768.08 1.768-.834V21.414l5.29-2.879v4.794a1.087 1.087 0 0 0 2.173 0v-5.964l3.999-2.134a1.08 1.08 0 0 0 .007-1.908zM92.51 36.77c-.302-.3-.72-.504-1.249-.621l-1.555-.343c-.52-.124-.786-.365-.786-.73 0-.242.096-.447.294-.607.198-.162.485-.242.859-.242.418 0 .748.095 1.013.285.146.103.256.227.337.365.11.198.322.307.543.307.044 0 .088 0 .132-.014a.633.633 0 0 0 .374-1.008 1.994 1.994 0 0 0-.521-.505c-.484-.35-1.1-.52-1.841-.52-.778 0-1.395.19-1.872.564-.47.38-.704.884-.704 1.49 0 .922.594 1.506 1.782 1.77l1.417.291c.587.132.88.388.88.768a.718.718 0 0 1-.352.628c-.227.161-.542.241-.938.241-.456 0-.83-.095-1.124-.277a1.013 1.013 0 0 1-.367-.38.672.672 0 0 0-.734-.315c-.476.095-.718.65-.447 1.046.154.22.352.394.594.548.536.329 1.19.49 1.96.49.837 0 1.496-.183 2.003-.549.5-.365.748-.884.748-1.548 0-.454-.147-.827-.447-1.134zm-8.72 1.403c-.432.417-.93.621-1.504.621-.615 0-1.122-.204-1.526-.606-.404-.401-.601-.95-.601-1.622 0-.672.197-1.207.601-1.615.404-.41.91-.607 1.526-.607.573 0 1.072.204 1.505.62.425.41.638.95.638 1.602 0 .657-.213 1.191-.638 1.607zm1.322-4.853a.685.685 0 0 0-.683.68v.067c-.594-.622-1.386-.93-2.37-.93-.873 0-1.637.323-2.275.966-.638.65-.96 1.468-.96 2.463 0 1.009.322 1.834.953 2.47.639.643 1.402.964 2.283.964.983 0 1.775-.307 2.37-.928v.066c0 .38.307.68.682.68.381 0 .683-.3.683-.68v-5.138a.68.68 0 0 0-.683-.68zm10.236 2.61c.097-.497.339-.892.727-1.17.382-.278.8-.416 1.255-.416.47 0 .866.131 1.203.402.33.27.55.665.654 1.184h-3.839zm5.233.285c0-.066 0-.08-.014-.19-.103-.782-.427-1.44-.97-1.966-.623-.614-1.38-.921-2.267-.921-.947 0-1.74.322-2.4.957-.653.65-.975 1.47-.975 2.485 0 1.148.425 2.054 1.276 2.727.61.474 1.388.708 2.165.693.69-.014 1.292-.19 1.812-.51.309-.199.573-.447.793-.747a.573.573 0 0 0 .117-.35.635.635 0 0 0-.491-.606.606.606 0 0 0-.623.24c-.39.534-.962.797-1.717.797a1.87 1.87 0 0 1-1.322-.527c-.374-.35-.594-.817-.653-1.403h4.623a.677.677 0 0 0 .646-.68zm-27.922-.285c.088-.497.337-.892.72-1.17.38-.278.806-.416 1.26-.416.463 0 .868.131 1.204.402.33.27.543.665.654 1.184h-3.838zm5.232.285c0-.066 0-.08-.014-.19a3.285 3.285 0 0 0-.97-1.966c-.623-.614-1.38-.921-2.267-.921-.947 0-1.746.322-2.4.957-.653.65-.983 1.47-.983 2.485 0 1.148.426 2.054 1.284 2.727.61.474 1.388.708 2.165.693.69-.014 1.292-.19 1.812-.51.309-.199.573-.447.793-.747a.565.565 0 0 0 .11-.35c0-.27-.19-.541-.49-.606a.595.595 0 0 0-.617.24c-.39.534-.962.797-1.725.797-.5 0-.94-.176-1.314-.527-.38-.35-.601-.817-.66-1.403h4.63a.677.677 0 0 0 .646-.68zm-8.828-5.832a.684.684 0 0 0-.683.68v8.075c0 .38.309.68.683.68a.675.675 0 0 0 .683-.68v-8.076a.68.68 0 0 0-.683-.679zm-4.08 4.634c-.315.284-.74.424-1.291.424h-2.562v-3.136h2.562c.55 0 .976.146 1.29.438.317.285.478.665.478 1.126 0 .482-.161.862-.477 1.148zm1.02-3.195c-.572-.525-1.343-.782-2.311-.782h-3.185a.78.78 0 0 0-.786.782v7.331c0 .366.302.665.669.665h.073a.668.668 0 0 0 .667-.665v-2.427h2.562c.968 0 1.74-.263 2.31-.79.573-.518.86-1.205.86-2.067 0-.848-.287-1.535-.86-2.047zm70.044-11.167c.146-.738.507-1.322 1.078-1.732a3.144 3.144 0 0 1 1.879-.628c.698 0 1.291.204 1.783.606s.822.986.983 1.754h-5.723zm6.332-2.777c-.931-.92-2.054-1.374-3.375-1.374-1.41 0-2.598.475-3.566 1.432-.976.957-1.46 2.186-1.46 3.69 0 1.711.63 3.064 1.9 4.057.932.73 2.114 1.067 3.295 1.03.998-.036 1.872-.292 2.628-.767a4.354 4.354 0 0 0 1.174-1.11.897.897 0 0 0-.544-1.411l-.021-.008c-.36-.073-.713.089-.94.38-.573.782-1.424 1.162-2.539 1.162-.749 0-1.395-.255-1.96-.782-.557-.511-.888-1.213-.982-2.082h6.963c.5 0 .895-.395.895-.885v-.021c-.087-1.337-.571-2.442-1.468-3.311zm-10.5-4.159a1.14 1.14 0 0 0-.808-.328c-.417 0-.8.22-.998.591l-5.041 9.29-5.019-9.283a1.136 1.136 0 0 0-1.006-.598c-.638 0-1.16.51-1.16 1.147v10.89a1.017 1.017 0 0 0 1.02 1.016c.566 0 1.021-.454 1.021-1.017v-7.323l4.19 7.769a1.087 1.087 0 0 0 1.908.008l4.19-7.777v7.323a1.02 1.02 0 0 0 2.04 0V14.523c0-.315-.131-.6-.338-.805zm-22.793 3.925c-.726-.76-1.658-1.14-2.817-1.14-1.432 0-2.554.483-3.37 1.461v-4.538a.987.987 0 0 0-.3-.717.983.983 0 0 0-.719-.3c-.565 0-1.02.454-1.02 1.017v12c0 .278.117.534.3.725.184.182.433.291.72.291.565 0 1.02-.453 1.02-1.016v-3.449c0-1.177.257-2.076.77-2.69.522-.607 1.226-.913 2.122-.913.696 0 1.254.24 1.672.723.426.476.64 1.119.64 1.908v4.415c0 .284.116.54.3.73.19.183.44.292.726.292.573 0 1.027-.453 1.027-1.022v-4.825c0-1.205-.359-2.192-1.07-2.952zm-11.088 5.379c-.419-.102-.866.058-1.078.438-.514.922-1.38 1.382-2.576 1.382-.91 0-1.66-.293-2.246-.884-.587-.593-.881-1.375-.881-2.346 0-.95.294-1.726.888-2.332.595-.607 1.336-.906 2.239-.906.675 0 1.262.175 1.768.526.3.212.543.497.734.848a.965.965 0 0 0 .859.497c.103 0 .19-.015.286-.037a1.003 1.003 0 0 0 .564-1.498 4.571 4.571 0 0 0-1.24-1.287c-.866-.613-1.863-.92-2.971-.92-1.417 0-2.627.483-3.633 1.44-.998.965-1.49 2.185-1.49 3.669 0 1.49.492 2.718 1.49 3.668 1.006.957 2.216 1.44 3.633 1.44 1.137 0 2.143-.314 3.023-.943.513-.357.924-.79 1.218-1.286a.956.956 0 0 0 .147-.52.98.98 0 0 0-.734-.95zm-13.54.972c-.638.621-1.38.928-2.222.928-.918 0-1.673-.3-2.276-.906-.6-.606-.902-1.404-.902-2.404 0-1.001.301-1.806.902-2.413.603-.598 1.358-.905 2.276-.905.843 0 1.584.307 2.222.927.639.614.963 1.41.963 2.39 0 .972-.324 1.77-.963 2.383zm2.701-6.92a.99.99 0 0 0-.718-.3c-.566 0-1.02.453-1.02 1.015v.095c-.89-.921-2.063-1.381-3.524-1.381-1.305 0-2.435.483-3.382 1.44-.954.965-1.43 2.185-1.43 3.669 0 1.49.476 2.718 1.423 3.668.938.957 2.077 1.44 3.39 1.44 1.46 0 2.634-.468 3.523-1.388v.094a1.015 1.015 0 1 0 2.032 0V17.79c0-.278-.11-.533-.294-.716zm-19.255 3.58c.147-.738.506-1.322 1.078-1.732.573-.416 1.196-.628 1.88-.628.688 0 1.284.204 1.775.606.5.402.829.986.984 1.754h-5.717zm7.8.548c0-.03 0-.051-.007-.072-.096-1.309-.587-2.398-1.46-3.253-.932-.92-2.055-1.374-3.376-1.374-1.409 0-2.605.475-3.574 1.432-.976.957-1.46 2.186-1.46 3.69 0 1.711.639 3.064 1.908 4.057.925.73 2.113 1.067 3.295 1.03.99-.036 1.864-.292 2.62-.767.462-.292.859-.665 1.18-1.11.39-.527.096-1.272-.542-1.411l-.022-.008c-.36-.073-.72.089-.94.38-.58.782-1.423 1.162-2.545 1.162a2.779 2.779 0 0 1-1.96-.782c-.558-.511-.888-1.213-.976-2.082H74.8a.9.9 0 0 0 .904-.892zm-10.2-7.812h-9.43a.954.954 0 0 0-.668.27.915.915 0 0 0-.286.665c0 .527.434.95.955.95h3.646V25.39c0 .285.118.555.308.745.192.19.463.307.75.307.579 0 1.056-.468 1.056-1.052V15.275h3.669c.265 0 .499-.11.675-.278a.939.939 0 0 0 .28-.672.942.942 0 0 0-.955-.935z"/></svg>