<svg width="358" height="100" viewBox="0 0 358 100" xmlns="http://www.w3.org/2000/svg"><title>logo white</title><g fill="#FFF" fill-rule="evenodd"><path d="M91.3 91.082l-10.84-9.044c-4.728 2.523-10.678 4.001-17.14 4.001-14.199 0-25.935-7.217-27.726-16.572a11.68 11.68 0 0 1-.255-2.521c0-4.897 2.701-9.355 7.136-12.735 5.131-3.892 12.467-6.339 20.755-6.339 8.266 0 15.824 2.447 20.953 6.357 4.433 3.382 7.116 7.838 7.116 12.717v24.136zm33.93-57.774L93.145 15.914 64.542.33a2.678 2.678 0 0 0-2.572 0L33.297 15.914 1.409 33.308c-1.879 1.024-1.879 3.728 0 4.751l28.53 15.476v15.311c0 12.57 14.946 22.784 33.38 22.784 7.704 0 13.963-1.644 16.482-2.978l12.504 10.307c1.752 1.443 4.399.199 4.399-2.085v-43.34l13.158-7.196v11.984c0 1.5 1.204 2.704 2.684 2.704a2.711 2.711 0 0 0 2.72-2.704v-14.91l9.946-5.335c1.9-1.021 1.918-3.727.018-4.769zm104.859 58.615c-.748-.75-1.789-1.26-3.105-1.554l-3.867-.856c-1.296-.311-1.955-.914-1.955-1.828 0-.603.237-1.116.732-1.516.49-.404 1.205-.605 2.135-.605 1.04 0 1.86.238 2.52.713a2.9 2.9 0 0 1 .839.913c.274.495.801.768 1.35.768.108 0 .218 0 .327-.035 1.15-.238 1.645-1.591.93-2.521-.326-.477-.766-.898-1.295-1.263-1.203-.875-2.738-1.297-4.58-1.297-1.934 0-3.467.475-4.654 1.408-1.17.949-1.752 2.211-1.752 3.726 0 2.304 1.477 3.764 4.434 4.423l3.524.73c1.458.328 2.188.968 2.188 1.918 0 .658-.292 1.188-.876 1.571-.565.402-1.348.603-2.334.603-1.134 0-2.063-.237-2.794-.694a2.528 2.528 0 0 1-.913-.95 1.667 1.667 0 0 0-1.825-.786c-1.185.238-1.787 1.626-1.114 2.613.386.55.876.987 1.479 1.37 1.334.822 2.958 1.224 4.873 1.224 2.083 0 3.723-.456 4.985-1.37 1.24-.914 1.86-2.21 1.86-3.872 0-1.132-.365-2.066-1.112-2.833zm-21.685 3.508c-1.077 1.041-2.316 1.553-3.742 1.553-1.531 0-2.792-.512-3.796-1.517-1.004-1.003-1.495-2.373-1.495-4.054s.491-3.017 1.495-4.038c1.004-1.025 2.265-1.517 3.796-1.517 1.426 0 2.665.51 3.742 1.552 1.058 1.023 1.588 2.375 1.588 4.003 0 1.642-.53 2.978-1.588 4.018zm3.287-12.133c-.933 0-1.7.768-1.7 1.7v.166c-1.476-1.555-3.447-2.322-5.893-2.322-2.174 0-4.072.805-5.66 2.413-1.588 1.625-2.389 3.671-2.389 6.158 0 2.521.801 4.584 2.371 6.175 1.59 1.606 3.488 2.41 5.678 2.41 2.446 0 4.417-.767 5.894-2.32v.164c0 .952.766 1.7 1.7 1.7.946 0 1.696-.748 1.696-1.7V84.998c0-.932-.75-1.7-1.697-1.7zm25.46 6.525c.239-1.244.841-2.23 1.807-2.925.949-.694 1.99-1.04 3.12-1.04 1.169 0 2.156.327 2.994 1.003.821.678 1.369 1.665 1.626 2.962h-9.547zm13.015.71c0-.164 0-.2-.036-.474-.256-1.955-1.06-3.598-2.411-4.915-1.55-1.535-3.432-2.302-5.64-2.302-2.355 0-4.326.805-5.969 2.393-1.624 1.626-2.425 3.675-2.425 6.212 0 2.87 1.056 5.136 3.174 6.817 1.515 1.186 3.451 1.77 5.384 1.734 1.717-.036 3.214-.475 4.508-1.277a7.392 7.392 0 0 0 1.971-1.865c.201-.273.292-.565.292-.875 0-.676-.49-1.354-1.222-1.517a1.503 1.503 0 0 0-1.55.603c-.97 1.332-2.393 1.992-4.271 1.992-1.261 0-2.354-.44-3.287-1.318-.931-.877-1.479-2.044-1.625-3.508h11.5a1.69 1.69 0 0 0 1.607-1.7zm-69.45-.71c.219-1.244.84-2.23 1.79-2.925a5.213 5.213 0 0 1 3.138-1.04c1.15 0 2.155.327 2.993 1.003.821.678 1.35 1.665 1.626 2.962h-9.547zm13.015.71c0-.164 0-.2-.036-.474-.256-1.955-1.077-3.598-2.411-4.915-1.55-1.535-3.432-2.302-5.64-2.302-2.355 0-4.342.805-5.969 2.393-1.624 1.626-2.445 3.675-2.445 6.212 0 2.87 1.058 5.136 3.194 6.817 1.515 1.186 3.451 1.77 5.384 1.734 1.717-.036 3.214-.475 4.508-1.277a7.392 7.392 0 0 0 1.971-1.865c.201-.273.274-.565.274-.875 0-.676-.473-1.354-1.22-1.517a1.476 1.476 0 0 0-1.534.603c-.97 1.332-2.393 1.992-4.29 1.992-1.242 0-2.337-.44-3.268-1.318-.947-.877-1.495-2.044-1.641-3.508h11.515a1.69 1.69 0 0 0 1.608-1.7zm-21.959-14.578c-.93 0-1.697.768-1.697 1.698v20.19c0 .951.766 1.699 1.697 1.699.95 0 1.7-.748 1.7-1.7v-20.19c0-.93-.75-1.697-1.7-1.697zM161.624 87.54c-.783.711-1.841 1.06-3.21 1.06h-6.372v-7.838h6.372c1.369 0 2.427.363 3.21 1.094.787.713 1.188 1.663 1.188 2.814 0 1.206-.401 2.156-1.188 2.87zm2.537-7.986c-1.422-1.314-3.34-1.955-5.747-1.955h-7.922a1.946 1.946 0 0 0-1.954 1.955V97.88c0 .913.75 1.66 1.662 1.66h.183c.912 0 1.659-.747 1.659-1.66v-6.068h6.372c2.407 0 4.325-.658 5.747-1.973 1.424-1.298 2.136-3.015 2.136-5.171 0-2.12-.712-3.835-2.136-5.116zm174.217-27.919c.363-1.845 1.26-3.305 2.681-4.33 1.425-1.04 2.993-1.57 4.672-1.57 1.736 0 3.213.51 4.436 1.517 1.223 1.005 2.044 2.465 2.445 4.383h-14.234zm15.75-6.943c-2.319-2.3-5.111-3.435-8.397-3.435-3.504 0-6.46 1.188-8.868 3.582-2.428 2.393-3.632 5.464-3.632 9.227 0 4.275 1.568 7.657 4.727 10.14 2.316 1.827 5.257 2.668 8.195 2.576 2.48-.091 4.654-.73 6.534-1.918a10.853 10.853 0 0 0 2.92-2.777c.966-1.316.254-3.178-1.352-3.527l-.053-.018c-.894-.183-1.772.221-2.336.95-1.426 1.955-3.543 2.905-6.315 2.905-1.864 0-3.47-.64-4.873-1.955-1.388-1.279-2.21-3.033-2.446-5.207h17.319a2.208 2.208 0 0 0 2.227-2.21v-.054c-.217-3.344-1.422-6.104-3.65-8.279zm-26.12-10.396a2.828 2.828 0 0 0-2.007-.82c-1.038 0-1.99.548-2.482 1.478l-12.54 23.223-12.482-23.205a2.825 2.825 0 0 0-2.502-1.496 2.874 2.874 0 0 0-2.884 2.866v27.225c0 .694.276 1.333.748 1.81a2.523 2.523 0 0 0 1.791.73 2.534 2.534 0 0 0 2.537-2.54V45.258l10.422 19.422a2.701 2.701 0 0 0 2.37 1.425c.986 0 1.899-.548 2.374-1.405l10.423-19.442v18.308a2.543 2.543 0 0 0 2.537 2.54 2.543 2.543 0 0 0 2.535-2.54v-27.26c0-.787-.326-1.5-.84-2.01zm-56.688 9.812c-1.807-1.9-4.125-2.85-7.009-2.85-3.56 0-6.351 1.207-8.38 3.654V33.566c0-.694-.271-1.336-.746-1.792a2.438 2.438 0 0 0-1.788-.75 2.535 2.535 0 0 0-2.54 2.542v30c0 .694.293 1.333.75 1.81a2.491 2.491 0 0 0 1.79.73 2.533 2.533 0 0 0 2.535-2.54v-8.623c0-2.943.64-5.19 1.916-6.725 1.298-1.517 3.048-2.284 5.277-2.284 1.732 0 3.121.603 4.16 1.809 1.058 1.19 1.59 2.797 1.59 4.77V63.55c0 .71.29 1.35.746 1.827a2.572 2.572 0 0 0 1.807.73 2.54 2.54 0 0 0 2.555-2.557V51.49c0-3.014-.892-5.482-2.663-7.382zm-27.579 13.447c-1.042-.254-2.155.147-2.683 1.097-1.277 2.304-3.433 3.455-6.406 3.455-2.263 0-4.127-.733-5.587-2.211-1.458-1.482-2.19-3.437-2.19-5.865 0-2.377.732-4.314 2.208-5.83 1.48-1.517 3.324-2.266 5.569-2.266 1.68 0 3.14.438 4.397 1.317.748.528 1.35 1.24 1.825 2.118.438.804 1.261 1.244 2.137 1.244.256 0 .475-.038.712-.093 1.114-.329 1.787-1.35 1.787-2.412 0-.457-.128-.913-.383-1.334-.783-1.242-1.805-2.302-3.085-3.215-2.154-1.535-4.634-2.303-7.39-2.303-3.524 0-6.534 1.208-9.037 3.6-2.482 2.413-3.703 5.463-3.703 9.174 0 3.727 1.221 6.795 3.703 9.17 2.503 2.394 5.513 3.6 9.037 3.6 2.827 0 5.33-.786 7.518-2.357 1.278-.894 2.3-1.974 3.03-3.216a2.4 2.4 0 0 0 .367-1.297c0-1.06-.694-2.081-1.826-2.376zm-33.676 2.43c-1.588 1.553-3.432 2.32-5.529 2.32-2.281 0-4.161-.748-5.66-2.263-1.494-1.516-2.243-3.51-2.243-6.011 0-2.503.749-4.515 2.243-6.032 1.499-1.496 3.379-2.263 5.66-2.263 2.097 0 3.94.767 5.529 2.318 1.588 1.535 2.393 3.527 2.393 5.977 0 2.428-.805 4.421-2.393 5.954zm6.717-17.3a2.457 2.457 0 0 0-1.787-.75 2.531 2.531 0 0 0-2.537 2.538v.238c-2.21-2.302-5.131-3.454-8.763-3.454-3.247 0-6.058 1.208-8.412 3.6-2.375 2.413-3.56 5.463-3.56 9.174 0 3.727 1.185 6.795 3.541 9.17 2.335 2.394 5.166 3.6 8.43 3.6 3.633 0 6.553-1.17 8.764-3.47v.236c0 1.406 1.13 2.54 2.537 2.54a2.529 2.529 0 0 0 2.517-2.54V44.472c0-.694-.274-1.332-.73-1.789zm-47.892 8.95c.365-1.845 1.258-3.305 2.681-4.33 1.426-1.04 2.976-1.57 4.675-1.57 1.714 0 3.194.51 4.417 1.517 1.24 1.005 2.06 2.465 2.446 4.383H168.89zm19.402 1.37c0-.072 0-.127-.018-.18-.24-3.27-1.462-5.995-3.632-8.133-2.318-2.3-5.113-3.435-8.396-3.435-3.505 0-6.481 1.188-8.89 3.582-2.428 2.393-3.631 5.464-3.631 9.227 0 4.275 1.588 7.657 4.744 10.14 2.301 1.827 5.256 2.668 8.197 2.576 2.464-.091 4.636-.73 6.514-1.918a10.586 10.586 0 0 0 2.938-2.777c.968-1.316.238-3.178-1.349-3.527l-.054-.018c-.896-.183-1.79.221-2.338.95-1.442 1.955-3.54 2.905-6.332 2.905-1.845 0-3.47-.64-4.873-1.955-1.39-1.279-2.209-3.033-2.428-5.207h17.301a2.242 2.242 0 0 0 2.247-2.23zm-25.372-19.53h-23.452c-.639 0-1.241.255-1.663.675a2.293 2.293 0 0 0-.711 1.663 2.381 2.381 0 0 0 2.374 2.375h9.07v25.289c0 .71.293 1.387.766 1.862.476.475 1.15.767 1.864.767a2.63 2.63 0 0 0 2.626-2.629v-25.29h9.126c.659 0 1.241-.273 1.68-.693.42-.42.695-1.005.695-1.681 0-1.298-1.059-2.337-2.375-2.337z"/><path d="M260.594 88.904c0 1.467.273 2.84.817 4.12a10.512 10.512 0 0 0 2.243 3.347c.95.952 2.065 1.7 3.342 2.246 1.278.545 2.65.818 4.115.818 1.446 0 2.808-.273 4.085-.818a10.497 10.497 0 0 0 3.342-2.246 10.719 10.719 0 0 0 2.258-3.347c.555-1.28.832-2.653.832-4.12 0-1.448-.277-2.811-.832-4.09a10.719 10.719 0 0 0-2.258-3.347 10.703 10.703 0 0 0-3.342-2.261 10.135 10.135 0 0 0-4.085-.833c-1.466 0-2.837.277-4.115.833a10.703 10.703 0 0 0-3.342 2.26 10.512 10.512 0 0 0-2.243 3.347 10.332 10.332 0 0 0-.817 4.09zm-.594 0c0-1.547.292-2.995.876-4.344a11.281 11.281 0 0 1 2.377-3.525c1-1.001 2.174-1.795 3.52-2.38 1.347-.585 2.793-.877 4.338-.877s2.99.292 4.338.877a11.264 11.264 0 0 1 3.52 2.38c1 1.002 1.793 2.177 2.377 3.525.584 1.35.876 2.797.876 4.344 0 1.547-.292 2.994-.876 4.343a11.281 11.281 0 0 1-2.377 3.525c-1 1.002-2.174 1.79-3.52 2.365-1.347.575-2.793.863-4.338.863s-2.99-.288-4.337-.863a11.058 11.058 0 0 1-3.52-2.365 11.281 11.281 0 0 1-2.378-3.525c-.584-1.349-.876-2.796-.876-4.343zm11.052.089c.435 0 .896-.03 1.381-.09.485-.059.931-.183 1.337-.371a2.527 2.527 0 0 0 1.01-.848c.268-.377.401-.882.401-1.517 0-.595-.104-1.076-.312-1.443a2.36 2.36 0 0 0-.817-.863 3.312 3.312 0 0 0-1.173-.431 7.87 7.87 0 0 0-1.382-.119h-3.535v5.682h3.09zm-3.684-6.277h4.189c1.446 0 2.51.302 3.193.907.684.605 1.025 1.453 1.025 2.544 0 .535-.089 1.006-.267 1.413-.178.407-.42.744-.728 1.011a3.416 3.416 0 0 1-1.055.625 4.802 4.802 0 0 1-1.277.283l3.922 6.009h-.743l-3.833-5.95a.975.975 0 0 1-.237.03h-3.595v5.92h-.594V82.716z" fill-rule="nonzero"/></g></svg>