<svg xmlns="http://www.w3.org/2000/svg" width="20" height="20" viewBox="0 0 20 20"><path fill="#FFC900" d="M5.128 0h9.744c1.783 0 2.43.186 3.082.534.652.349 1.163.86 1.512 1.512.348.652.534 1.299.534 3.082v9.744c0 1.783-.186 2.43-.534 3.082a3.635 3.635 0 0 1-1.512 1.512c-.652.348-1.299.534-3.082.534H5.128c-1.783 0-2.43-.186-3.082-.534a3.635 3.635 0 0 1-1.512-1.512C.186 17.302 0 16.655 0 14.872V5.128c0-1.783.186-2.43.534-3.082A3.635 3.635 0 0 1 2.046.534C2.698.186 3.345 0 5.128 0zm-1.23 6.591v7.072a.814.814 0 0 1-.217.702L2 16.404v.268h4.766v-.268l-1.681-2.04a.844.844 0 0 1-.232-.701V7.547l4.183 9.125h.486l3.593-9.125v7.273c0 .195 0 .232-.127.359l-1.292 1.254v.27h6.274v-.27l-1.247-1.224a.373.373 0 0 1-.142-.359V5.852a.373.373 0 0 1 .142-.358L18 4.269V4h-4.422l-3.152 7.863L6.84 4H2.202v.269l1.494 1.8a.62.62 0 0 1 .201.522z"/></svg>