<svg xmlns="http://www.w3.org/2000/svg" width="16" height="16" viewBox="0 0 16 16"><path fill="#FECA00" d="M11.813 9.865a3.847 3.847 0 0 1-1.438 2.03A3.919 3.919 0 0 1 8 12.668a3.919 3.919 0 0 1-2.375-.771 3.847 3.847 0 0 1-1.438-2.031.641.641 0 0 1 .042-.506.635.635 0 0 1 .396-.328.641.641 0 0 1 .505.042.635.635 0 0 1 .328.396 2.59 2.59 0 0 0 .964 1.349c.469.343.995.515 1.578.515.583 0 1.11-.172 1.578-.515a2.59 2.59 0 0 0 .964-1.35.632.632 0 0 1 .333-.395.655.655 0 0 1 .51-.042.634.634 0 0 1 .386.328.641.641 0 0 1 .041.506zM6.667 5.333c0 .368-.13.683-.391.943-.26.26-.575.39-.943.39s-.682-.13-.942-.39C4.13 6.016 4 5.701 4 5.333s.13-.682.39-.942c.261-.26.575-.391.943-.391s.683.13.943.39c.26.261.39.575.39.943zm5.333 0c0 .368-.13.683-.39.943-.261.26-.575.39-.943.39s-.683-.13-.943-.39c-.26-.26-.39-.575-.39-.943s.13-.682.39-.942c.26-.26.575-.391.943-.391s.682.13.942.39c.26.261.391.575.391.943zM14.667 8a6.48 6.48 0 0 0-.532-2.589 6.732 6.732 0 0 0-1.421-2.125 6.732 6.732 0 0 0-2.125-1.421A6.48 6.48 0 0 0 8 1.333a6.48 6.48 0 0 0-2.589.532 6.732 6.732 0 0 0-2.125 1.421 6.732 6.732 0 0 0-1.421 2.125A6.48 6.48 0 0 0 1.333 8c0 .903.177 1.766.532 2.589a6.732 6.732 0 0 0 1.421 2.125 6.732 6.732 0 0 0 2.125 1.421A6.48 6.48 0 0 0 8 14.667a6.48 6.48 0 0 0 2.589-.532 6.732 6.732 0 0 0 2.125-1.421 6.732 6.732 0 0 0 1.421-2.125A6.48 6.48 0 0 0 14.667 8zM16 8c0 1.451-.358 2.79-1.073 4.016a7.964 7.964 0 0 1-2.911 2.911A7.826 7.826 0 0 1 8 16a7.826 7.826 0 0 1-4.016-1.073 7.964 7.964 0 0 1-2.911-2.911A7.826 7.826 0 0 1 0 8c0-1.451.358-2.79 1.073-4.016a7.964 7.964 0 0 1 2.911-2.911A7.826 7.826 0 0 1 8 0c1.451 0 2.79.358 4.016 1.073a7.964 7.964 0 0 1 2.911 2.911A7.826 7.826 0 0 1 16 8z"/></svg>