<svg xmlns="http://www.w3.org/2000/svg" xmlns:xlink="http://www.w3.org/1999/xlink" style="display:none">
<defs>

<symbol id="icn-youtube" viewBox="0 0 20 20" width="20" height="20">
<path fill="currentColor" d="M5.1277704,0 L14.8722296,4.14336124e-16 C16.6552671,8.6797452e-17 17.3018396,0.185651222 17.9536914,0.534265408 C18.6055433,0.882879593 19.1171204,1.39445674 19.4657346,2.04630859 C19.8143488,2.69816044 20,3.34473292 20,5.1277704 L20,14.8722296 C20,16.6552671 19.8143488,17.3018396 19.4657346,17.9536914 C19.1171204,18.6055433 18.6055433,19.1171204 17.9536914,19.4657346 C17.3018396,19.8143488 16.6552671,20 14.8722296,20 L5.1277704,20 C3.34473292,20 2.69816044,19.8143488 2.04630859,19.4657346 C1.39445674,19.1171204 0.882879593,18.6055433 0.534265408,17.9536914 C0.185651222,17.3018396 2.18359114e-16,16.6552671 0,14.8722296 L2.76224082e-16,5.1277704 C5.78649678e-17,3.34473292 0.185651222,2.69816044 0.534265408,2.04630859 C0.882879593,1.39445674 1.39445674,0.882879593 2.04630859,0.534265408 C2.69816044,0.185651222 3.34473292,3.27538672e-16 5.1277704,0 Z M7,14.2151899 L15,9.60759494 L7,5 L7,14.2151899 Z"/>
</symbol>

<symbol id="icn-twitter" viewBox="0 0 20 20" width="20" height="20">
<path fill="currentColor" d="M5.1277704,0 L14.8722296,4.14336124e-16 C16.6552671,8.6797452e-17 17.3018396,0.185651222 17.9536914,0.534265408 C18.6055433,0.882879593 19.1171204,1.39445674 19.4657346,2.04630859 C19.8143488,2.69816044 20,3.34473292 20,5.1277704 L20,14.8722296 C20,16.6552671 19.8143488,17.3018396 19.4657346,17.9536914 C19.1171204,18.6055433 18.6055433,19.1171204 17.9536914,19.4657346 C17.3018396,19.8143488 16.6552671,20 14.8722296,20 L5.1277704,20 C3.34473292,20 2.69816044,19.8143488 2.04630859,19.4657346 C1.39445674,19.1171204 0.882879593,18.6055433 0.534265408,17.9536914 C0.185651222,17.3018396 -1.55799772e-15,16.6552671 -1.77635684e-15,14.8722296 L-1.50013276e-15,5.1277704 C-1.71849187e-15,3.34473292 0.185651222,2.69816044 0.534265408,2.04630859 C0.882879593,1.39445674 1.39445674,0.882879593 2.04630859,0.534265408 C2.69816044,0.185651222 3.34473292,3.27538672e-16 5.1277704,0 Z M16.2198,7.0403 C16.7798,6.6303 17.2698,6.1203 17.6598,5.5503 C17.1398,5.7693 16.5798,5.9303 15.9998,6.0003 C16.5998,5.6403 17.0498,5.0803 17.2698,4.4093 C16.7098,4.7393 16.0898,4.9793 15.4398,5.1093 C14.9098,4.5503 14.1598,4.2003 13.3298,4.2003 C11.7398,4.2003 10.4398,5.4793 10.4398,7.0693 C10.4398,7.3003 10.4698,7.5193 10.5198,7.7293 C8.1198,7.6093 5.9898,6.4603 4.5698,4.7203 C4.3198,5.1493 4.1798,5.6403 4.1798,6.1703 C4.1798,7.1703 4.6898,8.0503 5.4598,8.5603 C4.9898,8.5503 4.5398,8.4203 4.1598,8.2003 C4.1498,8.2203 4.1498,8.2293 4.1498,8.2393 C4.1498,9.6303 5.1498,10.8003 6.4698,11.0603 C6.2298,11.1303 5.9698,11.1593 5.7098,11.1593 C5.5198,11.1593 5.3398,11.1403 5.1698,11.1093 C5.5298,12.2503 6.5998,13.0903 7.8598,13.1093 C6.8798,13.8803 5.6298,14.3403 4.2798,14.3403 C4.0498,14.3403 3.8198,14.3303 3.5898,14.3003 C4.8698,15.1203 6.3798,15.5903 8.0098,15.5903 C13.3198,15.5903 16.2298,11.2103 16.2298,7.4093 C16.2298,7.2803 16.2198,7.1593 16.2198,7.0403 Z"/>
</symbol>

<symbol id="icn-inst" viewBox="0 0 20 20" width="20" height="20">
<path fill="currentColor" d="M5.1277704,0 L14.8722296,4.14336124e-16 C16.6552671,8.6797452e-17 17.3018396,0.185651222 17.9536914,0.534265408 C18.6055433,0.882879593 19.1171204,1.39445674 19.4657346,2.04630859 C19.8143488,2.69816044 20,3.34473292 20,5.1277704 L20,14.8722296 C20,16.6552671 19.8143488,17.3018396 19.4657346,17.9536914 C19.1171204,18.6055433 18.6055433,19.1171204 17.9536914,19.4657346 C17.3018396,19.8143488 16.6552671,20 14.8722296,20 L5.1277704,20 C3.34473292,20 2.69816044,19.8143488 2.04630859,19.4657346 C1.39445674,19.1171204 0.882879593,18.6055433 0.534265408,17.9536914 C0.185651222,17.3018396 -1.55799772e-15,16.6552671 -1.77635684e-15,14.8722296 L-1.50013276e-15,5.1277704 C-1.71849187e-15,3.34473292 0.185651222,2.69816044 0.534265408,2.04630859 C0.882879593,1.39445674 1.39445674,0.882879593 2.04630859,0.534265408 C2.69816044,0.185651222 3.34473292,3.27538672e-16 5.1277704,0 Z M16.9025,12.9275 L16.9025,7.0625 C16.9025,4.9255 15.1475,3.1905 12.9995,3.1905 L7.1035,3.1905 C4.9565,3.1905 3.2115,4.9255 3.2115,7.0625 L3.2115,12.9275 C3.2115,15.0655 4.9565,16.7995 7.1035,16.7995 L12.9995,16.7995 C15.1475,16.7995 16.9025,15.0655 16.9025,12.9275 Z M13.0001,4.357 C14.5071,4.357 15.7261,5.576 15.7261,7.062 L15.7261,12.927 C15.7261,14.425 14.5071,15.633 13.0001,15.633 L7.1041,15.633 C5.6071,15.633 4.3881,14.425 4.3881,12.927 L4.3881,7.062 C4.3881,5.576 5.6071,4.357 7.1041,4.357 L13.0001,4.357 Z M10.0571,13.485 C11.9881,13.485 13.5571,11.916 13.5571,9.995 C13.5571,8.074 11.9881,6.515 10.0571,6.515 C8.1261,6.515 6.5571,8.074 6.5571,9.995 C6.5571,11.916 8.1261,13.485 10.0571,13.485 Z M13.7121,7.156 C14.1771,7.156 14.5481,6.773 14.5481,6.308 C14.5481,5.854 14.1771,5.472 13.7121,5.472 C13.2481,5.472 12.8651,5.854 12.8651,6.308 C12.8651,6.773 13.2481,7.156 13.7121,7.156 Z M12.3903,9.9949 C12.3903,11.2749 11.3373,12.3179 10.0573,12.3179 C8.7663,12.3179 7.7233,11.2749 7.7233,9.9949 C7.7233,8.7149 8.7663,7.6819 10.0573,7.6819 C11.3373,7.6819 12.3903,8.7149 12.3903,9.9949 Z"/>
</symbol>

<symbol id="icn-fb" viewBox="0 0 20 20" width="20" height="20">
<path fill="currentColor" d="M5.1277704,0 L14.8722296,4.14336124e-16 C16.6552671,8.6797452e-17 17.3018396,0.185651222 17.9536914,0.534265408 C18.6055433,0.882879593 19.1171204,1.39445674 19.4657346,2.04630859 C19.8143488,2.69816044 20,3.34473292 20,5.1277704 L20,14.8722296 C20,16.6552671 19.8143488,17.3018396 19.4657346,17.9536914 C19.1171204,18.6055433 18.6055433,19.1171204 17.9536914,19.4657346 C17.3018396,19.8143488 16.6552671,20 14.8722296,20 L5.1277704,20 C3.34473292,20 2.69816044,19.8143488 2.04630859,19.4657346 C1.39445674,19.1171204 0.882879593,18.6055433 0.534265408,17.9536914 C0.185651222,17.3018396 2.18359114e-16,16.6552671 0,14.8722296 L2.76224082e-16,5.1277704 C5.78649678e-17,3.34473292 0.185651222,2.69816044 0.534265408,2.04630859 C0.882879593,1.39445674 1.39445674,0.882879593 2.04630859,0.534265408 C2.69816044,0.185651222 3.34473292,3.27538672e-16 5.1277704,0 Z M13.0603,19.9902 L13.0703,12.8502 L15.5503,12.8502 C15.7703,12.8502 15.9603,12.6792 15.9803,12.4602 L16.2603,10.1602 C16.2893,9.9002 16.0803,9.6692 15.8203,9.6692 L13.0603,9.6692 L13.0603,7.7402 C13.0603,6.8702 13.3003,6.2702 14.5603,6.2702 L15.7203,6.2702 C15.9603,6.2702 16.1603,6.0802 16.1603,5.8302 L16.1603,3.8902 C16.1603,3.6502 15.9603,3.4502 15.7203,3.4502 L13.8203,3.4502 C11.5103,3.4502 9.9303,4.8602 9.9303,7.4402 L9.9303,9.6692 L8.0703,9.6692 C7.8303,9.6692 7.6303,9.8702 7.6303,10.1102 L7.6403,12.4102 C7.6403,12.6502 7.8403,12.8502 8.0803,12.8502 L9.9403,12.8502 L9.9303,19.9902 L13.0603,19.9902 Z"/>
</symbol>

<svg id="icn-medium" width="20" height="20" viewBox="0 0 20 20">
  <path fill="#FFC900" d="M5.1277704,0 L14.8722296,0 C16.6552671,0 17.3018396,0.185651222 17.9536914,0.534265408 C18.6055433,0.882879593 19.1171204,1.39445674 19.4657346,2.04630859 C19.8143488,2.69816044 20,3.34473292 20,5.1277704 L20,14.8722296 C20,16.6552671 19.8143488,17.3018396 19.4657346,17.9536914 C19.1171204,18.6055433 18.6055433,19.1171204 17.9536914,19.4657346 C17.3018396,19.8143488 16.6552671,20 14.8722296,20 L5.1277704,20 C3.34473292,20 2.69816044,19.8143488 2.04630859,19.4657346 C1.39445674,19.1171204 0.882879593,18.6055433 0.534265408,17.9536914 C0.185651222,17.3018396 0,16.6552671 0,14.8722296 L0,5.1277704 C0,3.34473292 0.185651222,2.69816044 0.534265408,2.04630859 C0.882879593,1.39445674 1.39445674,0.882879593 2.04630859,0.534265408 C2.69816044,0.185651222 3.34473292,0 5.1277704,0 Z M3.89729225,6.59123728 L3.89729225,13.6630001 C3.94081024,13.918105 3.86039232,14.1786962 3.68067226,14.3649492 L2,16.4035883 L2,16.6724198 L6.76563956,16.6724198 L6.76563956,16.4035883 L5.0849673,14.3649492 C4.90392913,14.1790045 4.81853164,13.9201305 4.85340802,13.6630001 L4.85340802,7.54708275 L9.03641453,16.6724198 L9.52194207,16.6724198 L13.1148459,7.54708275 L13.1148459,14.8204693 C13.1148459,15.0146254 13.1148459,15.051963 12.9878618,15.1789113 L11.6956116,16.4334585 L11.6956116,16.70229 L17.9701213,16.70229 L17.9701213,16.4334585 L16.722689,15.2087815 C16.6125708,15.1248429 16.5579465,14.9868841 16.5807656,14.8503395 L16.5807656,5.85195057 C16.5579465,5.71540593 16.6125708,5.57744704 16.722689,5.49350853 L18,4.26883154 L18,4 L13.5779645,4 L10.4257703,11.8633223 L6.84033612,4 L2.20168068,4 L2.20168068,4.26883154 L3.69561159,6.0685093 C3.84227176,6.20069995 3.91717103,6.39482835 3.89729225,6.59123728 Z"/>
</svg>


<symbol id="icn-check" viewBox="0 0 16 16" width="16" height="16">
  <g fill="none" fill-rule="evenodd">
    <circle cx="8" cy="8" r="8" fill="currentColor"/>
    <polygon fill="#FFF" points="3.667 8.128 4.6 7.231 7 9.538 12.067 4.667 13 5.564 7 11.333"/>
  </g>
</symbol>

<symbol id="icn-cross" viewBox="0 0 10 10" width="10" height="10">
  <polygon fill="currentColor" fill-rule="evenodd" points="295.75 12 297 13.25 293.25 17 297 20.75 295.75 22 292 18.25 288.25 22 287 20.75 290.75 17 287 13.25 288.25 12 292 15.75" transform="translate(-287 -12)"/>
</symbol>

<symbol id="icn-cross-thin" viewBox="0 0 16 16" width="16" height="16">
  <polygon fill="currentColor" fill-rule="evenodd" points="0 1.31 1.31 0 8 6.69 14.69 0 16 1.31 9.31 8 16 14.69 14.69 16 8 9.345 1.31 16 0 14.69 6.655 8"/>
</symbol>

<symbol id="icn-arrow-left" viewBox="0 0 8 12" width="8" height="12">
  <polygon fill="currentColor" fill-rule="evenodd" points="45.6 8.5 47 9.824 41 15.5 35 9.824 36.4 8.5 41 12.851" transform="rotate(90 25.5 -9.5)"/>
</symbol>

<symbol id="icn-arrow-right" viewBox="0 0 8 12" width="8" height="12">
  <polygon fill="currentColor" fill-rule="evenodd" points="208.6 8.5 210 9.824 204 15.5 198 9.824 199.4 8.5 204 12.851" transform="rotate(-90 101 109)"/>
</symbol>

<symbol id="icn-arrows-left" viewBox="0 0 14 12" width="14" height="12">
  <g fill="currentColor" fill-rule="evenodd" transform="translate(0 -.5)">
    <polygon points="14.6 3 16 4.324 10 10 4 4.324 5.4 3 10 7.351" transform="rotate(90 10 6.5)"/>
    <polygon points="8.6 3 10 4.324 4 10 -2 4.324 -.6 3 4 7.351" transform="rotate(90 4 6.5)"/>
  </g>
</symbol>

<symbol id="icn-arrows-right" viewBox="0 0 14 12" width="14" height="12">
  <g fill="currentColor" fill-rule="evenodd" transform="translate(-.5 -.5)">
    <polygon points="8.6 3 10 4.324 4 10 -2 4.324 -.6 3 4 7.351" transform="rotate(-90 4 6.5)"/>
    <polygon points="14.6 3 16 4.324 10 10 4 4.324 5.4 3 10 7.351" transform="rotate(-90 10 6.5)"/>
  </g>
</symbol>

</defs>
</svg>
