<svg xmlns="http://www.w3.org/2000/svg" xmlns:xlink="http://www.w3.org/1999/xlink" width="96" height="76" viewBox="0 0 96 76"><defs><path id="a" d="M0 0h96v76H0z"/></defs><g fill="none" fill-rule="evenodd"><mask id="b" fill="#fff"><use xlink:href="#a"/></mask><path fill="#FFF" d="M69.215 69.512l-8.232-6.889c-3.582 1.91-8.092 3.054-12.976 3.054-10.778 0-19.673-5.522-21.03-12.661a9.815 9.815 0 0 1-.193-1.91c0-3.752 2.062-7.154 5.423-9.72 3.888-2.984 9.45-4.853 15.717-4.853 6.267 0 11.995 1.869 15.882 4.853 3.362 2.58 5.41 5.982 5.41 9.72v18.406zm25.706-44.078L70.599 12.16 48.934.251a2.05 2.05 0 0 0-1.965 0L25.235 12.159 1.079 25.42c-1.439.782-1.439 2.846 0 3.627l21.61 11.81v11.686c0 9.607 11.331 17.388 25.318 17.388 5.825 0 10.57-1.241 12.493-2.273l9.463 7.865c1.342 1.115 3.348.153 3.348-1.576V40.87l9.96-5.508v9.148c0 1.143.914 2.064 2.035 2.064 1.148 0 2.06-.92 2.06-2.064V33.131l7.555-4.072c1.439-.767 1.439-2.844 0-3.625z" mask="url(#b)"/></g></svg>