<svg xmlns="http://www.w3.org/2000/svg" xmlns:xlink="http://www.w3.org/1999/xlink" width="19" height="16" viewBox="0 0 19 16"><defs><path id="a" d="M0 .552h16.755v14.559H0z"/></defs><g fill="none" fill-rule="evenodd"><path fill="#777" d="M9.355 4.373c2.144 0 3.854 1.698 3.854 3.804 0 .294-.035.578-.1.854l2.2 2.16c1.077-.791 2.198-1.787 3.383-2.987-4.043-4.498-7.79-6.222-11.635-5.111L8.469 4.48c.289-.071.578-.107.886-.107"/><g transform="translate(0 .337)"><mask id="b" fill="#fff"><use xlink:href="#a"/></mask><path fill="#777" d="M11.563 10.951a3.837 3.837 0 0 1-2.208.685c-2.126 0-3.872-1.707-3.872-3.796 0-.809.262-1.564.697-2.178L7.428 6.89a1.969 1.969 0 0 0-.235.942c0 1.165.968 2.107 2.153 2.107.344 0 .67-.08.959-.222l1.258 1.235zm2.615.685v-.01h-.01l-1.646-1.617-.389-.382-.869-.853c.154-.285.236-.605.236-.943 0-1.164-.97-2.115-2.154-2.115-.343 0-.67.08-.959.23L7.137 4.72 5.674 3.28 3.094.747a.688.688 0 0 0-.959 0 .658.658 0 0 0 0 .942l2.299 2.258C2.986 4.836 1.51 6.107 0 7.778c4.741 5.129 8.586 6.64 12.947 4.533l2.651 2.605c.265.26.695.26.96 0a.66.66 0 0 0 0-.942l-2.38-2.338z" mask="url(#b)"/></g></g></svg>