<svg xmlns="http://www.w3.org/2000/svg" width="8" height="16" viewBox="0 0 8 16">
  <path d="M720.999998,585 L720.999998,593 C720.999998,594.5 722.499994,596 723.999991,596 C725.499988,596 726.999984,594.5 726.999984,593 L726.999984,585 L728,585 L727.999982,593 C727.999982,595 725.999987,597 723.999991,597 C721.999996,597 720,595 720,593 L720,585 L720,584 C720,582.5 721.499997,581 722.999993,581 C724.49999,581 725.999987,582.5 725.999987,584 L725.999987,591 L725.999987,592 C725.999987,593 724.999989,594 723.999991,594 C722.999993,594 721.999996,593 721.999996,592 L721.999996,585 L722.999993,585 L722.999993,592 C722.999993,592.5 723.499992,593 723.999991,593 C724.49999,593 724.999989,592.5 724.999989,592 L724.999989,591 L724.999989,585 L724.999989,584 C724.999989,583 723.999991,582 722.999993,582 C721.999996,582 720.999998,583 720.999998,584 L720.999998,585 Z" transform="translate(-720 -581)"/>
</svg>
