<svg xmlns="http://www.w3.org/2000/svg" xmlns:xlink="http://www.w3.org/1999/xlink" width="16" height="17" viewBox="0 0 16 17">
  <defs>
    <polygon id="edit-a" points="0 .895 15.218 .895 15.218 16.112 0 16.112"/>
  </defs>
  <g fill="none" fill-rule="evenodd">
    <mask id="edit-b" fill="#fff">
      <use xlink:href="#edit-a"/>
    </mask>
    <path fill="#009D98" d="M12.1274421,16.1122421 L3.08970526,16.1122421 C1.38612632,16.1122421 0.000178947368,14.7262947 0.000178947368,13.0218211 L0.000178947368,3.98497895 C0.000178947368,2.2814 1.38612632,0.894557895 3.08970526,0.894557895 L6.45391579,0.894557895 C6.94781053,0.894557895 7.34865263,1.2954 7.34865263,1.78929474 C7.34865263,2.28318947 6.94781053,2.68403158 6.45391579,2.68403158 L3.08970526,2.68403158 C2.37302105,2.68403158 1.78965263,3.2674 1.78965263,3.98497895 L1.78965263,13.0218211 C1.78965263,13.7394 2.37302105,14.3227684 3.08970526,14.3227684 L12.1274421,14.3227684 C12.8450211,14.3227684 13.4283895,13.7394 13.4283895,13.0218211 L13.4283895,9.62271579 C13.4283895,9.12792632 13.8283368,8.72797895 14.3231263,8.72797895 C14.8170211,8.72797895 15.2178632,9.12792632 15.2178632,9.62271579 L15.2178632,13.0218211 C15.2178632,14.7262947 13.8310211,16.1122421 12.1274421,16.1122421" mask="url(#edit-b)"/>
    <polygon fill="#009D98" points="8.15 10.932 5.18 7.962 10.128 2.985 13.099 5.956" mask="url(#edit-b)"/>
    <path fill="#009D98" d="M10.8705158 2.24292632L11.4485158 1.66492632C12.2680947.845347368 13.5976737.845347368 14.4181474 1.66492632 15.2386211 2.4854 15.2386211 3.81497895 14.4181474 4.63545263L13.7972 5.2564M4.44263684 8.69916842L4.08921579 11.7833263C4.07132105 11.9372211 4.20195263 12.0669579 4.35584737 12.0481684L7.41316316 11.6696947" mask="url(#edit-b)"/>
  </g>
</svg>
