<svg xmlns="http://www.w3.org/2000/svg" xmlns:xlink="http://www.w3.org/1999/xlink" width="19" height="16" viewBox="0 0 19 16">
  <defs>
    <polygon id="invisible-a" points="0 .552 16.755 .552 16.755 15.111 0 15.111"/>
  </defs>
  <g fill="none" fill-rule="evenodd">
    <path fill="#777" d="M9.35505714,4.37297778 C11.4993429,4.37297778 13.2093429,6.07075556 13.2093429,8.17742222 C13.2093429,8.47075556 13.1740571,8.7552 13.109819,9.03075556 L15.3083905,11.1907556 C16.3859619,10.3996444 17.5069619,9.40408889 18.6922,8.20408889 C14.648819,3.70631111 10.9022,1.98186667 7.0569619,3.09297778 L8.46929524,4.47964444 C8.75791429,4.40853333 9.0474381,4.37297778 9.35505714,4.37297778"/>
    <g transform="translate(0 .337)">
      <mask id="invisible-b" fill="#fff">
        <use xlink:href="#invisible-a"/>
      </mask>
      <path fill="#777" d="M11.5630381,10.9513778 C10.9387524,11.3869333 10.1787524,11.6358222 9.35541905,11.6358222 C7.22922857,11.6358222 5.4830381,9.92915556 5.4830381,7.84026667 C5.4830381,7.03137778 5.74451429,6.27582222 6.17970476,5.66248889 L7.42827619,6.88915556 C7.27446667,7.1736 7.1930381,7.4936 7.1930381,7.83137778 C7.1930381,8.99582222 8.16113333,9.93804444 9.34637143,9.93804444 C9.69018095,9.93804444 10.0158952,9.85804444 10.3045143,9.71582222 L11.5630381,10.9513778 Z M14.1778,11.6358222 L14.1778,11.6269333 L14.1687524,11.6269333 L12.5220857,10.0091556 L12.1330381,9.62693333 L11.2644667,8.7736 C11.4182762,8.48915556 11.4997048,8.16915556 11.4997048,7.83137778 C11.4997048,6.66693333 10.5307048,5.71582222 9.34637143,5.71582222 C9.0025619,5.71582222 8.67684762,5.79582222 8.38732381,5.94693333 L7.13784762,4.72026667 L5.6730381,3.28026667 L3.09446667,0.746933333 C2.82937143,0.487377778 2.39960952,0.487377778 2.13541905,0.746933333 C1.87032381,1.00737778 1.87032381,1.4296 2.13541905,1.68915556 L4.43351429,3.94693333 C2.98589524,4.83582222 1.51113333,6.10693333 0.000180952381,7.77804444 C4.74113333,12.9069333 8.58637143,14.4180444 12.9473238,12.3113778 L15.5982762,14.9158222 C15.8633714,15.1762667 16.2931333,15.1762667 16.5573238,14.9158222 C16.8215143,14.6553778 16.8215143,14.2340444 16.5573238,13.9736 L14.1778,11.6358222 Z" mask="url(#invisible-b)"/>
    </g>
  </g>
</svg>
