<svg xmlns="http://www.w3.org/2000/svg" width="144" height="40">
  <path fill="#FFF" fill-rule="evenodd" d="M36.7073365,36.4328128 L32.3491349,32.8151112 C30.4485217,33.8244134 28.056244,34.4156701 25.4577607,34.4156701 C19.7493165,34.4156701 15.0308055,31.5288173 14.3109208,27.7868714 C14.2382718,27.4587203 14.2081849,27.1225299 14.2081849,26.7783001 C14.2081849,24.8196253 15.2942496,23.0363542 17.0774505,21.684284 C19.1402396,20.127576 22.0894924,19.1489695 25.4218032,19.1489695 C28.745308,19.1489695 31.7840877,20.127576 33.8461431,21.6915924 C35.6286101,23.0443936 36.7073365,24.8269338 36.7073365,26.7783001 L36.7073365,36.4328128 Z M50.3491901,13.3233737 L37.4492362,6.36569306 L25.9494252,0.131552784 C25.6265411,-0.0438509281 25.2383463,-0.0438509281 24.9154622,0.131552784 L13.3870319,6.36569306 L0.566331385,13.3233737 C-0.188777128,13.732649 -0.188777128,14.8143052 0.566331385,15.2235805 L12.0367893,21.4138699 L12.0367893,27.5383829 C12.0367893,32.5666226 18.0461028,36.6520674 25.4577607,36.6520674 C28.5552467,36.6520674 31.0715412,35.9943035 32.0842232,35.4607839 L37.1116755,39.583502 C37.8161499,40.1608725 38.8801998,39.6631645 38.8801998,38.7496035 L38.8801998,21.4138699 L44.1703624,18.5350565 L44.1703624,23.3286938 C44.1703624,23.9287206 44.6546885,24.41035 45.2498227,24.41035 C45.8515612,24.41035 46.3432256,23.9287206 46.3432256,23.3286938 L46.3432256,17.3649675 L50.3418518,15.230889 C51.1057662,14.8223446 51.1131045,13.7399575 50.3491901,13.3233737 L50.3491901,13.3233737 Z M92.5083147,36.7690032 C92.2074454,36.4693552 91.7891637,36.2654484 91.2600741,36.1477817 L89.7050936,35.8050137 C89.184076,35.6807694 88.9191643,35.4395893 88.9191643,35.0741649 C88.9191643,34.8329847 89.0145619,34.6276162 89.2134291,34.4675603 C89.4108287,34.3060428 89.6977553,34.2256494 90.0720073,34.2256494 C90.490289,34.2256494 90.8197776,34.3206597 91.0846893,34.5106804 C91.2314548,34.6137301 91.3407951,34.7379744 91.4222499,34.8761048 C91.5323241,35.0741649 91.7444002,35.1830613 91.9652823,35.1830613 C92.0085781,35.1830613 92.0526078,35.1830613 92.0966374,35.1691752 C92.5589488,35.0741649 92.757816,34.5326059 92.4708895,34.1606039 C92.3395343,33.9698523 92.1626819,33.8017571 91.9498719,33.6555873 C91.4662796,33.3055108 90.8491307,33.1366847 90.1086987,33.1366847 C89.3308415,33.1366847 88.7144264,33.3267054 88.2374385,33.7001691 C87.7670551,34.0794796 87.5329641,34.5844962 87.5329641,35.1903698 C87.5329641,36.1119702 88.1266306,36.6959183 89.3154311,36.9597548 L90.7324521,37.2513634 C91.3187803,37.3829162 91.6123113,37.6387133 91.6123113,38.0187547 C91.6123113,38.2818602 91.4948989,38.4938064 91.2600741,38.6472846 C91.0325875,38.8080714 90.7177755,38.8884647 90.3215087,38.8884647 C89.8658018,38.8884647 89.4922836,38.7934544 89.1980187,38.6107422 C89.0373105,38.5164627 88.9191643,38.3841791 88.831105,38.2307008 C88.6843395,37.9749037 88.3834702,37.8506595 88.0972775,37.9164358 C87.6210234,38.0114462 87.3788603,38.5668913 87.6496427,38.9615496 C87.8044803,39.1815351 88.0018799,39.356208 88.244043,39.5096862 C88.7804709,39.8385682 89.4335774,39.9993549 90.2033624,39.9993549 C91.0406596,39.9993549 91.7003706,39.8166427 92.2074454,39.4512183 C92.7064481,39.0857939 92.9552156,38.5668913 92.9552156,37.9025497 C92.9552156,37.4494235 92.8084501,37.0759597 92.5083147,36.7690032 L92.5083147,36.7690032 Z M83.78971,38.1722329 C83.3567517,38.5888167 82.8584828,38.7934544 82.2853635,38.7934544 C81.6696823,38.7934544 81.1626074,38.5888167 80.7590023,38.1868499 C80.3553972,37.7856139 80.1579976,37.2374773 80.1579976,36.5650964 C80.1579976,35.8927155 80.3553972,35.358465 80.7590023,34.9499206 C81.1626074,34.5399144 81.6696823,34.3433161 82.2853635,34.3433161 C82.8584828,34.3433161 83.3567517,34.5472229 83.78971,34.9638067 C84.2153299,35.373082 84.4281399,35.9139101 84.4281399,36.5650964 C84.4281399,37.2221295 84.2153299,37.75638 83.78971,38.1722329 L83.78971,38.1722329 Z M85.1113333,33.3193969 C84.7363474,33.3193969 84.4281399,33.6263534 84.4281399,33.9990863 L84.4281399,34.0655935 C83.8344734,33.4436412 83.0419397,33.1366847 82.0586108,33.1366847 C81.1846223,33.1366847 80.4214417,33.458989 79.7830117,34.1021359 C79.1445818,34.7518605 78.8224315,35.5704112 78.8224315,36.5650964 C78.8224315,37.5736678 79.1445818,38.3987961 79.7756734,39.0353654 C80.4148372,39.6777815 81.1780178,39.9993549 82.0586108,39.9993549 C83.0419397,39.9993549 83.8344734,39.6923984 84.4281399,39.071177 L84.4281399,39.1369533 C84.4281399,39.5177256 84.7363474,39.8166427 85.1113333,39.8166427 C85.4921898,39.8166427 85.7937929,39.5177256 85.7937929,39.1369533 L85.7937929,33.9990863 C85.7937929,33.6263534 85.4921898,33.3193969 85.1113333,33.3193969 L85.1113333,33.3193969 Z M95.3474933,35.929258 C95.4436247,35.4315499 95.6857878,35.0368916 96.0739826,34.759169 C96.4555729,34.4814465 96.8738546,34.3433161 97.3288276,34.3433161 C97.7984772,34.3433161 98.1954779,34.474138 98.5323047,34.744552 C98.8625271,35.0156969 99.0826754,35.4103553 99.1861451,35.929258 L95.3474933,35.929258 Z M100.580417,36.2135581 C100.580417,36.1477817 100.580417,36.1331648 100.565741,36.0235374 C100.463005,35.2415292 100.139387,34.5844962 99.5963546,34.0575542 C98.9733351,33.4436412 98.2167589,33.1366847 97.3288276,33.1366847 C96.3821901,33.1366847 95.5896564,33.458989 94.9292116,34.0940966 C94.2761052,34.744552 93.9539549,35.5638335 93.9539549,36.5789825 C93.9539549,37.727146 94.378841,38.6333985 95.2300809,39.3057794 C95.8391578,39.7801003 96.6177488,40.0139719 97.3948721,39.9993549 C98.0854038,39.984738 98.6871424,39.8093342 99.2074261,39.4884916 C99.5156336,39.2904316 99.7798115,39.041943 99.9999598,38.742295 C100.080681,38.6333985 100.117372,38.5164627 100.117372,38.3922184 C100.117372,38.1218044 99.9199726,37.8506595 99.6257077,37.7856139 C99.3908829,37.7337236 99.1413816,37.828734 99.0026882,38.026794 C98.6130258,38.5595828 98.0406403,38.8234192 97.2855318,38.8234192 C96.778457,38.8234192 96.3388943,38.6472846 95.9639084,38.2964772 C95.5896564,37.9456698 95.3695082,37.4786574 95.310802,36.8932475 L99.9339153,36.8932475 C100.300829,36.8720529 100.580417,36.5789825 100.580417,36.2135581 L100.580417,36.2135581 Z M72.6575465,35.929258 C72.7456058,35.4315499 72.9951072,35.0368916 73.3774313,34.759169 C73.7582878,34.4814465 74.1839078,34.3433161 74.6388808,34.3433161 C75.1011922,34.3433161 75.5055311,34.474138 75.842358,34.744552 C76.1725803,35.0156969 76.3853903,35.4103553 76.4961983,35.929258 L72.6575465,35.929258 Z M77.8904706,36.2135581 C77.8904706,36.1477817 77.8904706,36.1331648 77.875794,36.0235374 C77.7730582,35.2415292 77.4428358,34.5844962 76.9064079,34.0575542 C76.2833883,33.4436412 75.5268121,33.1366847 74.6388808,33.1366847 C73.6922433,33.1366847 72.8931052,33.458989 72.2392649,34.0940966 C71.5861584,34.744552 71.255936,35.5638335 71.255936,36.5789825 C71.255936,37.727146 71.6815559,38.6333985 72.5401341,39.3057794 C73.149211,39.7801003 73.927802,40.0139719 74.7049253,39.9993549 C75.395457,39.984738 75.9971956,39.8093342 76.5174793,39.4884916 C76.8256868,39.2904316 77.0898647,39.041943 77.310013,38.742295 C77.390734,38.6333985 77.4200871,38.5164627 77.4200871,38.3922184 C77.4200871,38.1218044 77.2300258,37.8506595 76.9291565,37.7856139 C76.6935979,37.7337236 76.4514348,37.828734 76.3127414,38.026794 C75.923079,38.5595828 75.3506935,38.8234192 74.5882467,38.8234192 C74.0885102,38.8234192 73.6482137,38.6472846 73.2739617,38.2964772 C72.8931052,37.9456698 72.6729569,37.4786574 72.6142507,36.8932475 L77.2439685,36.8932475 C77.6108823,36.8720529 77.8904706,36.5789825 77.8904706,36.2135581 L77.8904706,36.2135581 Z M69.0617917,30.3821155 C68.6875397,30.3821155 68.3793321,30.689072 68.3793321,31.0610741 L68.3793321,39.1369533 C68.3793321,39.5177256 68.6875397,39.8166427 69.0617917,39.8166427 C69.443382,39.8166427 69.7449851,39.5177256 69.7449851,39.1369533 L69.7449851,31.0610741 C69.7449851,30.689072 69.443382,30.3821155 69.0617917,30.3821155 L69.0617917,30.3821155 Z M64.9817107,35.0156969 C64.6668987,35.2999971 64.2412788,35.4395893 63.6909081,35.4395893 L61.1291163,35.4395893 L61.1291163,32.3042479 L63.6909081,32.3042479 C64.2412788,32.3042479 64.6668987,32.4496868 64.9817107,32.7420263 C65.2979904,33.0270574 65.4594324,33.4070987 65.4594324,33.8675335 C65.4594324,34.3498937 65.2979904,34.7299351 64.9817107,35.0156969 L64.9817107,35.0156969 Z M66.001731,31.8211568 C65.4300793,31.2956765 64.6588266,31.0391486 63.6909081,31.0391486 L60.5060967,31.0391486 C60.0650664,31.0391486 59.7201674,31.3906869 59.7201674,31.8211568 L59.7201674,39.1523012 C59.7201674,39.5177256 60.0217705,39.8166427 60.3886843,39.8166427 L60.4620671,39.8166427 C60.8289808,39.8166427 61.1291163,39.5177256 61.1291163,39.1523012 L61.1291163,36.7251523 L63.6909081,36.7251523 C64.6588266,36.7251523 65.4300793,36.4620467 66.001731,35.9358356 C66.5741164,35.4169329 66.8603092,34.7299351 66.8603092,33.8675335 C66.8603092,33.0197489 66.5741164,32.3334818 66.001731,31.8211568 L66.001731,31.8211568 Z M136.046301,20.6537871 C136.192333,19.9156299 136.552642,19.3316817 137.124294,18.9216755 C137.697413,18.5058225 138.327771,18.2938764 139.002892,18.2938764 C139.700762,18.2938764 140.294429,18.4977832 140.786093,18.9004809 C141.277758,19.3024477 141.60798,19.8863959 141.769422,20.6537871 L136.046301,20.6537871 Z M142.378499,17.8765617 C141.446538,16.9564231 140.323782,16.5025659 139.002892,16.5025659 C137.593943,16.5025659 136.405143,16.9776177 135.437224,17.9350296 C134.461234,18.8924415 133.976908,20.1209984 133.976908,21.625816 C133.976908,23.3360022 134.607265,24.6888034 135.877521,25.6820269 C136.808748,26.4128757 137.990944,26.7490662 139.172406,26.7125237 C140.169678,26.6759813 141.043667,26.4201842 141.799509,25.9451325 C142.253748,25.6527929 142.650749,25.2800601 142.973633,24.8342423 C143.361828,24.3080312 143.075635,23.5632962 142.429867,23.4237041 L142.408586,23.4163956 C142.04901,23.3433107 141.696039,23.5048283 141.469287,23.796437 C140.896167,24.5784452 140.044927,24.9584866 138.930243,24.9584866 C138.181005,24.9584866 137.535237,24.7026895 136.970924,24.1764784 C136.413215,23.6648842 136.082259,22.9632694 135.987595,22.0935593 L142.950884,22.0935593 C143.450621,22.0935593 143.846154,21.6989009 143.846154,21.2092322 L143.846154,21.1880376 C143.758828,19.8505843 143.274502,18.7462718 142.378499,17.8765617 L142.378499,17.8765617 Z M131.877427,13.718032 C131.671955,13.5141252 131.386496,13.3898809 131.070217,13.3898809 C130.652669,13.3898809 130.270345,13.6091355 130.072211,13.9811376 L125.030816,23.2702259 L120.01217,13.9884461 C119.813303,13.6157132 119.425108,13.3898809 119.006092,13.3898809 C118.367662,13.3898809 117.846645,13.9007442 117.846645,14.5365827 L117.846645,25.4262298 C117.846645,25.7039524 117.957453,25.9597494 118.147514,26.150501 C118.330971,26.3332132 118.587811,26.4421097 118.867399,26.4421097 C119.431712,26.4421097 119.887419,25.9889834 119.887419,25.4262298 L119.887419,18.1031248 L124.077574,25.8720476 C124.267636,26.222855 124.634549,26.4421097 125.030816,26.4421097 C125.427083,26.4421097 125.793997,26.222855 125.984792,25.8800869 L130.175681,18.1031248 L130.175681,25.4262298 C130.175681,25.9889834 130.637259,26.4421097 131.195701,26.4421097 C131.75341,26.4421097 132.214988,25.9889834 132.214988,25.4262298 L132.214988,14.5226965 C132.214988,14.2077007 132.083633,13.9226697 131.877427,13.718032 L131.877427,13.718032 Z M109.085478,17.6426901 C108.358989,16.8826073 107.427028,16.5025659 106.267581,16.5025659 C104.835883,16.5025659 103.713861,16.985657 102.898578,17.9642636 L102.898578,13.4264233 C102.898578,13.1487008 102.789238,12.8921729 102.598443,12.7094607 C102.414986,12.51944 102.164751,12.4098127 101.879292,12.4098127 C101.314245,12.4098127 100.858538,12.8629389 100.858538,13.4264233 L100.858538,25.4262298 C100.858538,25.7039524 100.97595,25.9597494 101.159407,26.150501 C101.342864,26.3332132 101.592365,26.4421097 101.879292,26.4421097 C102.443605,26.4421097 102.898578,25.9889834 102.898578,25.4262298 L102.898578,21.9773543 C102.898578,20.7999569 103.156152,19.9010129 103.669097,19.2870999 C104.190849,18.6804954 104.894589,18.3735389 105.790593,18.3735389 C106.486995,18.3735389 107.045438,18.614719 107.462986,19.0970792 C107.888606,19.5728618 108.102149,20.2160087 108.102149,21.0053254 L108.102149,25.4196522 C108.102149,25.7039524 108.218828,25.9597494 108.402285,26.150501 C108.593814,26.3332132 108.843315,26.4421097 109.128774,26.4421097 C109.701893,26.4421097 110.156133,25.9889834 110.156133,25.4196522 L110.156133,20.5953192 C110.156133,19.3901496 109.797291,18.4027728 109.085478,17.6426901 L109.085478,17.6426901 Z M97.9973445,23.0217373 C97.578329,22.9201493 97.1306942,23.0802052 96.918618,23.4602465 C96.4049388,24.3818469 95.5382885,24.8422816 94.3428835,24.8422816 C93.4329373,24.8422816 92.6836994,24.5492113 92.0966374,23.9579546 C91.5103092,23.3652362 91.2160444,22.583228 91.2160444,21.6119299 C91.2160444,20.6610956 91.5103092,19.8863959 92.1039757,19.2797914 C92.6991098,18.6731869 93.4402756,18.3735389 94.3428835,18.3735389 C95.0180048,18.3735389 95.6050668,18.5489426 96.1106739,18.9004809 C96.4115432,19.1116962 96.6537063,19.3967272 96.8445015,19.7475346 C97.0206201,20.0691081 97.3515763,20.2452427 97.7038135,20.2452427 C97.8065493,20.2452427 97.8946086,20.2298948 97.9900062,20.2079694 C98.437641,20.0764166 98.7084233,19.6678721 98.7084233,19.243249 C98.7084233,19.0605368 98.6570554,18.8778246 98.5543196,18.7097293 C98.2395076,18.2127521 97.8285642,17.7888598 97.3141511,17.4234354 C96.4482346,16.8095224 95.450963,16.5025659 94.3428835,16.5025659 C92.9258625,16.5025659 91.715781,16.985657 90.7097034,17.9423381 C89.711698,18.9077894 89.2207674,20.127576 89.2207674,21.6119299 C89.2207674,23.1028615 89.711698,24.3299566 90.7097034,25.2800601 C91.715781,26.237472 92.9258625,26.7198322 94.3428835,26.7198322 C95.4795823,26.7198322 96.4856598,26.4055672 97.365519,25.7770372 C97.8791983,25.4196522 98.2901417,24.9877205 98.5836727,24.4907434 C98.6871424,24.3299566 98.731172,24.1472444 98.731172,23.9718407 C98.731172,23.5479484 98.4523175,23.1394039 97.9973445,23.0217373 L97.9973445,23.0217373 Z M84.457493,23.9937662 C83.8190631,24.6149876 83.0778973,24.9219441 82.2347294,24.9219441 C81.3174451,24.9219441 80.5616027,24.6222961 79.9591303,24.0164225 C79.3581256,23.409818 79.0572563,22.6124619 79.0572563,21.6119299 C79.0572563,20.6106671 79.3581256,19.8060025 79.9591303,19.199398 C80.5616027,18.6008329 81.3174451,18.2938764 82.2347294,18.2938764 C83.0778973,18.2938764 83.8190631,18.6008329 84.457493,19.2213235 C85.0959229,19.8352365 85.4195409,20.6318617 85.4195409,21.6119299 C85.4195409,22.583228 85.0959229,23.380584 84.457493,23.9937662 L84.457493,23.9937662 Z M87.1579783,17.0733589 C86.9745214,16.8826073 86.7176817,16.7737109 86.4395611,16.7737109 C85.8737801,16.7737109 85.4195409,17.2268371 85.4195409,17.7888598 L85.4195409,17.8838702 C84.5308757,16.9630007 83.3567517,16.5025659 81.896435,16.5025659 C80.5909558,16.5025659 79.4608614,16.985657 78.5142239,17.9423381 C77.5595143,18.9077894 77.0832603,20.127576 77.0832603,21.6119299 C77.0832603,23.1028615 77.5595143,24.3299566 78.5068857,25.2800601 C79.4454511,26.237472 80.5836175,26.7198322 81.896435,26.7198322 C83.3567517,26.7198322 84.5308757,26.252089 85.4195409,25.3319503 L85.4195409,25.4262298 C85.4195409,25.9889834 85.8737801,26.4421097 86.4395611,26.4421097 C86.9965362,26.4421097 87.4515093,25.9889834 87.4515093,25.4262298 L87.4515093,17.7888598 C87.4515093,17.5111373 87.3414351,17.2560711 87.1579783,17.0733589 L87.1579783,17.0733589 Z M67.9030781,20.6537871 C68.0498436,19.9156299 68.4086852,19.3316817 68.9810707,18.9216755 C69.55419,18.5058225 70.1772095,18.2938764 70.860403,18.2938764 C71.549467,18.2938764 72.1446011,18.4977832 72.6362655,18.9004809 C73.1352683,19.3024477 73.4647568,19.8863959 73.6195944,20.6537871 L67.9030781,20.6537871 Z M75.7036646,21.2019237 C75.7036646,21.1726898 75.7036646,21.1507643 75.6963263,21.1295697 C75.6001949,19.8213504 75.1085304,18.7316548 74.2360095,17.8765617 C73.3040486,16.9564231 72.1805587,16.5025659 70.860403,16.5025659 C69.4514541,16.5025659 68.2545814,16.9776177 67.2859291,17.9350296 C66.3099385,18.8924415 65.8263462,20.1209984 65.8263462,21.625816 C65.8263462,23.3360022 66.4647761,24.6888034 67.7335639,25.6820269 C68.6589204,26.4128757 69.8469872,26.7490662 71.0291833,26.7125237 C72.0198504,26.6759813 72.8931052,26.4201842 73.6482137,25.9451325 C74.1112588,25.6527929 74.5075257,25.2800601 74.829676,24.8342423 C75.2186046,24.3080312 74.9250736,23.5632962 74.2873775,23.4237041 L74.2653626,23.4163956 C73.9050533,23.3433107 73.5454778,23.5048283 73.3253296,23.796437 C72.7456058,24.5784452 71.902438,24.9584866 70.7796819,24.9584866 C70.0377823,24.9584866 69.3846758,24.7026895 68.8203625,24.1764784 C68.2619197,23.6648842 67.9324312,22.9632694 67.8443719,22.0935593 L74.8003229,22.0935593 C75.2993256,22.0935593 75.6963263,21.6989009 75.7036646,21.2019237 L75.7036646,21.2019237 Z M65.5027283,13.3898809 L56.0737785,13.3898809 C55.8169389,13.3898809 55.5747758,13.4914689 55.4052616,13.6595641 C55.229143,13.8276593 55.1190689,14.0622618 55.1190689,14.3246365 C55.1190689,14.8515785 55.552761,15.27474 56.0737785,15.27474 L59.7201674,15.27474 L59.7201674,25.3904182 C59.7201674,25.6747184 59.8383137,25.9451325 60.028375,26.1351532 C60.219904,26.3251738 60.4906863,26.4421097 60.7776129,26.4421097 C61.3566028,26.4421097 61.8335907,25.9743664 61.8335907,25.3904182 L61.8335907,15.27474 L65.5027283,15.27474 C65.76764,15.27474 66.001731,15.1651126 66.1778496,14.9970174 C66.3473637,14.8289222 66.4574379,14.5950506 66.4574379,14.3246365 C66.4574379,13.8057339 66.0318179,13.3898809 65.5027283,13.3898809 L65.5027283,13.3898809 Z"/>
</svg>