<?xml version="1.0" encoding="UTF-8"?>
<svg width="358px" height="100px" viewBox="0 0 358 100" version="1.1" xmlns="http://www.w3.org/2000/svg" xmlns:xlink="http://www.w3.org/1999/xlink">
    <!-- Generator: Sketch 55.2 (78181) - https://sketchapp.com -->
    <title>logo white</title>
    <desc>Created with Sketch.</desc>
    <g stroke="none" stroke-width="1" fill="none" fill-rule="evenodd">
        <g fill="#FFFFFF">
            <path d="M91.2994122,91.0820319 L80.4595834,82.037778 C75.7323302,84.5610335 69.7821968,86.0391752 63.3191838,86.0391752 C49.1209975,86.0391752 37.3849982,78.8220433 35.5944826,69.4671786 C35.4137884,68.6468008 35.3389554,67.8063247 35.3389554,66.9457503 C35.3389554,62.0490633 38.040243,57.5908856 42.4754651,54.2107099 C47.6060862,50.31894 54.9415421,47.8724236 63.2297493,47.8724236 C71.4960542,47.8724236 79.0541838,50.31894 84.1829797,54.2289811 C88.6163766,57.6109839 91.2994122,62.0673345 91.2994122,66.9457503 L91.2994122,91.0820319 Z M125.229774,33.3084341 L93.1446836,15.9142327 L64.542064,0.328881961 C63.7389785,-0.10962732 62.7734507,-0.10962732 61.9703653,0.328881961 L33.296563,15.9142327 L1.40859369,33.3084341 C-0.46953123,34.3316225 -0.46953123,37.035763 1.40859369,38.0589514 L29.9382056,53.5346747 L29.9382056,68.8459571 C29.9382056,81.4165565 44.8847216,91.6301685 63.3191838,91.6301685 C71.0233289,91.6301685 77.2819201,89.9857587 79.8006882,88.6519597 L92.3050943,98.9587549 C94.0572808,100.402181 96.7038125,99.1579112 96.7038125,96.8740087 L96.7038125,53.5346747 L109.861638,46.3376412 L109.861638,58.3217344 C109.861638,59.8218016 111.066266,61.025875 112.546499,61.025875 C114.043158,61.025875 115.266038,59.8218016 115.266038,58.3217344 L115.266038,43.4124188 L125.211522,38.0772226 C127.111549,37.0558614 127.129801,34.3498937 125.229774,33.3084341 L125.229774,33.3084341 Z M230.089011,91.9225081 C229.340681,91.173388 228.30032,90.663621 226.984355,90.3694544 L223.116769,89.5125341 C221.820881,89.2019234 221.161986,88.5989731 221.161986,87.6854121 C221.161986,87.0824619 221.399261,86.5690406 221.893888,86.1689009 C222.384866,85.7651069 223.098517,85.5641235 224.029366,85.5641235 C225.069727,85.5641235 225.889239,85.8016493 226.548134,86.2767011 C226.913173,86.5343253 227.185127,86.844936 227.387723,87.1902621 C227.661502,87.6854121 228.188984,87.9576533 228.738367,87.9576533 C228.846054,87.9576533 228.955565,87.9576533 229.065077,87.922938 C230.214949,87.6854121 230.709577,86.3315147 229.995926,85.4015096 C229.669216,84.9246308 229.229344,84.5043927 228.700038,84.1389683 C227.497235,83.2637769 225.962247,82.8417117 224.120626,82.8417117 C222.18592,82.8417117 220.652756,83.3167634 219.46638,84.2504228 C218.296431,85.1986991 217.714194,86.4612404 217.714194,87.9759245 C217.714194,90.2799254 219.190776,91.7397959 222.14759,92.3993869 L225.672041,93.1284086 C227.130371,93.4572905 227.860449,94.0967832 227.860449,95.0468867 C227.860449,95.7046506 227.568418,96.234516 226.984355,96.6182116 C226.418545,97.0201785 225.635537,97.2211619 224.649932,97.2211619 C223.516486,97.2211619 222.587462,96.983636 221.855559,96.5268555 C221.455842,96.2911568 221.161986,95.9604477 220.942962,95.5767521 C220.577923,94.9372594 219.829594,94.6266486 219.117768,94.7910896 C217.933217,95.0286155 217.330903,96.4172282 218.004399,97.4038741 C218.389515,97.9538378 218.880493,98.39052 219.482807,98.7742156 C220.817024,99.5964205 222.441447,99.9983873 224.356076,99.9983873 C226.438622,99.9983873 228.079472,99.5416068 229.340681,98.6280458 C230.581813,97.7144848 231.200554,96.4172282 231.200554,94.7563743 C231.200554,93.6235586 230.835515,92.6898993 230.089011,91.9225081 L230.089011,91.9225081 Z M208.403878,95.4305823 C207.327013,96.4720419 206.087706,96.983636 204.662229,96.983636 C203.130891,96.983636 201.869682,96.4720419 200.865825,95.4671247 C199.861968,94.4640348 199.370991,93.0936933 199.370991,91.412741 C199.370991,89.7317888 199.861968,88.3961626 200.865825,87.3748014 C201.869682,86.3497859 203.130891,85.8582901 204.662229,85.8582901 C206.087706,85.8582901 207.327013,86.3680572 208.403878,87.4095167 C209.46249,88.432705 209.991797,89.7847753 209.991797,91.412741 C209.991797,93.0553237 209.46249,94.3909499 208.403878,95.4305823 L208.403878,95.4305823 Z M211.691052,83.2984922 C210.758378,83.2984922 209.991797,84.0658834 209.991797,84.9977157 L209.991797,85.1639838 C208.515214,83.6091029 206.544005,82.8417117 204.098244,82.8417117 C201.924438,82.8417117 200.026236,83.6474725 198.438317,85.2553399 C196.850398,86.8796513 196.049137,88.926028 196.049137,91.412741 C196.049137,93.9341694 196.850398,95.9969901 198.420065,97.5884134 C200.009809,99.1944536 201.908011,99.9983873 204.098244,99.9983873 C206.544005,99.9983873 208.515214,99.2309961 209.991797,97.6779424 L209.991797,97.8423834 C209.991797,98.7943139 210.758378,99.5416068 211.691052,99.5416068 C212.638328,99.5416068 213.388483,98.7943139 213.388483,97.8423834 L213.388483,84.9977157 C213.388483,84.0658834 212.638328,83.2984922 211.691052,83.2984922 L211.691052,83.2984922 Z M237.150688,89.8231449 C237.389788,88.5788748 237.992102,87.5922289 238.95763,86.8979225 C239.906731,86.2036162 240.947092,85.8582901 242.078712,85.8582901 C243.246836,85.8582901 244.234267,86.185345 245.072031,86.8613801 C245.893368,87.5392424 246.440926,88.5258883 246.698279,89.8231449 L237.150688,89.8231449 Z M250.166148,90.5338953 C250.166148,90.3694544 250.166148,90.3329119 250.129644,90.0588436 C249.874117,88.1038231 249.069206,86.4612404 247.718562,85.1438854 C246.168972,83.6091029 244.287197,82.8417117 242.078712,82.8417117 C239.724211,82.8417117 237.753002,83.6474725 236.110327,85.2352415 C234.485904,86.8613801 233.684644,88.9095839 233.684644,91.4474563 C233.684644,94.317865 234.741431,96.5834963 236.858656,98.2644485 C238.373568,99.4502507 240.310099,100.03493 242.24298,99.9983873 C243.960487,99.9618449 245.457147,99.5233356 246.751209,98.721229 C247.517791,98.226079 248.174861,97.6048575 248.722419,96.8557375 C248.923191,96.5834963 249.01445,96.2911568 249.01445,95.980546 C249.01445,95.3045109 248.523473,94.6266486 247.79157,94.4640348 C247.207508,94.3343091 246.586942,94.571835 246.24198,95.066985 C245.272802,96.398957 243.849151,97.058548 241.971026,97.058548 C240.709816,97.058548 239.616525,96.6182116 238.683851,95.7411931 C237.753002,94.8641745 237.205443,93.6966435 237.059428,92.2331188 L248.558152,92.2331188 C249.470749,92.1801323 250.166148,91.4474563 250.166148,90.5338953 L250.166148,90.5338953 Z M180.71568,89.8231449 C180.934704,88.5788748 181.55527,87.5922289 182.506196,86.8979225 C183.453472,86.2036162 184.512084,85.8582901 185.643705,85.8582901 C186.793577,85.8582901 187.799259,86.185345 188.637023,86.8613801 C189.458361,87.5392424 189.987667,88.5258883 190.263272,89.8231449 L180.71568,89.8231449 Z M193.731141,90.5338953 C193.731141,90.3694544 193.731141,90.3329119 193.694637,90.0588436 C193.43911,88.1038231 192.617772,86.4612404 191.283555,85.1438854 C189.733965,83.6091029 187.85219,82.8417117 185.643705,82.8417117 C183.289204,82.8417117 181.301568,83.6474725 179.675319,85.2352415 C178.050897,86.8613801 177.229559,88.9095839 177.229559,91.4474563 C177.229559,94.317865 178.288172,96.5834963 180.423649,98.2644485 C181.93856,99.4502507 183.875092,100.03493 185.807972,99.9983873 C187.52548,99.9618449 189.022139,99.5233356 190.316202,98.721229 C191.082784,98.226079 191.739854,97.6048575 192.287412,96.8557375 C192.488183,96.5834963 192.561191,96.2911568 192.561191,95.980546 C192.561191,95.3045109 192.088466,94.6266486 191.340136,94.4640348 C190.754249,94.3343091 190.151935,94.571835 189.806973,95.066985 C188.837795,96.398957 187.414143,97.058548 185.517766,97.058548 C184.274809,97.058548 183.179693,96.6182116 182.248843,95.7411931 C181.301568,94.8641745 180.754009,93.6966435 180.607994,92.2331188 L192.123144,92.2331188 C193.035742,92.1801323 193.731141,91.4474563 193.731141,90.5338953 L193.731141,90.5338953 Z M171.772228,75.9552889 C170.841379,75.9552889 170.074798,76.7226801 170.074798,77.6526852 L170.074798,97.8423834 C170.074798,98.7943139 170.841379,99.5416068 171.772228,99.5416068 C172.721329,99.5416068 173.471484,98.7943139 173.471484,97.8423834 L173.471484,77.6526852 C173.471484,76.7226801 172.721329,75.9552889 171.772228,75.9552889 L171.772228,75.9552889 Z M161.624148,87.5392424 C160.84114,88.2499928 159.782527,88.5989731 158.413631,88.5989731 L152.041878,88.5989731 L152.041878,80.7606197 L158.413631,80.7606197 C159.782527,80.7606197 160.84114,81.124217 161.624148,81.8550658 C162.410807,82.5676434 162.812349,83.5177468 162.812349,84.6688337 C162.812349,85.8747342 162.410807,86.8248377 161.624148,87.5392424 L161.624148,87.5392424 Z M164.161168,79.5528921 C162.739342,78.2391914 160.821063,77.5978715 158.413631,77.5978715 L150.492288,77.5978715 C149.395346,77.5978715 148.537505,78.4767172 148.537505,79.5528921 L148.537505,97.8807529 C148.537505,98.7943139 149.28766,99.5416068 150.200257,99.5416068 L150.382776,99.5416068 C151.295374,99.5416068 152.041878,98.7943139 152.041878,97.8807529 L152.041878,91.8128807 L158.413631,91.8128807 C160.821063,91.8128807 162.739342,91.1551168 164.161168,89.839589 C165.58482,88.5423324 166.296645,86.8248377 166.296645,84.6688337 C166.296645,82.5493722 165.58482,80.8337046 164.161168,79.5528921 L164.161168,79.5528921 Z M338.377788,51.6344679 C338.741001,49.7890746 339.637172,48.3292041 341.058998,47.3041887 C342.484475,46.2645563 344.052317,45.7346909 345.731495,45.7346909 C347.467255,45.7346909 348.943837,46.2444579 350.166718,47.2512022 C351.389598,48.2561193 352.210935,49.7159898 352.612478,51.6344679 L338.377788,51.6344679 Z M354.127389,44.6914042 C351.809392,42.3910576 349.016845,41.2564149 345.731495,41.2564149 C342.227122,41.2564149 339.270308,42.4440442 336.862876,44.837574 C334.435368,47.2311038 333.23074,50.3024959 333.23074,54.0645401 C333.23074,58.3400056 334.798582,61.7220084 337.957993,64.2050672 C340.274165,66.0321893 343.214553,66.8726654 346.153115,66.7813093 C348.633554,66.6899532 350.807361,66.0504605 352.687311,64.8628312 C353.817106,64.1319824 354.804536,63.2001501 355.607622,62.0856057 C356.57315,60.7700779 355.861324,58.9082406 354.255153,58.5592603 L354.202222,58.540989 C353.307877,58.3582768 352.429959,58.7620708 351.865973,59.4910925 C350.440497,61.446113 348.323271,62.3962165 345.550801,62.3962165 C343.687278,62.3962165 342.081107,61.7567238 340.677533,60.4411959 C339.290385,59.1622105 338.467222,57.4081734 338.231772,55.2338982 L355.551041,55.2338982 C356.793998,55.2338982 357.777778,54.2472523 357.777778,53.0230806 L357.777778,52.970094 C357.56058,49.6264608 356.355951,46.8656794 354.127389,44.6914042 L354.127389,44.6914042 Z M328.008859,34.29508 C327.497805,33.785313 326.787804,33.4747022 326.001145,33.4747022 C324.96261,33.4747022 324.011684,34.0228389 323.518881,34.952844 L310.979796,58.1755646 L298.497293,34.9711152 C298.002665,34.0392829 297.037137,33.4747022 295.994951,33.4747022 C294.407032,33.4747022 293.111144,34.7518605 293.111144,36.3414567 L293.111144,63.5655745 C293.111144,64.2598809 293.386749,64.8993736 293.859474,65.3762525 C294.315772,65.833033 294.95459,66.1052741 295.64999,66.1052741 C297.053564,66.1052741 298.18701,64.9724585 298.18701,63.5655745 L298.18701,45.2578121 L308.608869,64.680119 C309.081594,65.5571375 309.994191,66.1052741 310.979796,66.1052741 C311.965401,66.1052741 312.877998,65.5571375 313.352549,64.7002173 L323.776233,45.2578121 L323.776233,63.5655745 C323.776233,64.9724585 324.924281,66.1052741 326.313254,66.1052741 C327.700401,66.1052741 328.848448,64.9724585 328.848448,63.5655745 L328.848448,36.3067414 C328.848448,35.5192518 328.521739,34.8066742 328.008859,34.29508 L328.008859,34.29508 Z M271.32015,44.1067252 C269.513207,42.2065183 267.195211,41.2564149 264.311404,41.2564149 C260.75045,41.2564149 257.959728,42.4641425 255.931937,44.9106589 L255.931937,33.5660583 C255.931937,32.871752 255.659983,32.2304322 255.185432,31.7736517 C254.729134,31.2985999 254.106742,31.0245316 253.396742,31.0245316 C251.991342,31.0245316 250.857897,32.1573473 250.857897,33.5660583 L250.857897,63.5655745 C250.857897,64.2598809 251.149928,64.8993736 251.606226,65.3762525 C252.062525,65.833033 252.683091,66.1052741 253.396742,66.1052741 C254.800316,66.1052741 255.931937,64.9724585 255.931937,63.5655745 L255.931937,54.9433858 C255.931937,51.9998923 256.57258,49.7525322 257.848391,48.2177497 C259.146104,46.7012384 260.896465,45.9338472 263.125027,45.9338472 C264.857137,45.9338472 266.24611,46.5367975 267.284645,47.742698 C268.343258,48.9321544 268.874389,50.5400218 268.874389,52.5133135 L268.874389,63.5491304 C268.874389,64.2598809 269.164595,64.8993736 269.620894,65.3762525 C270.09727,65.833033 270.717836,66.1052741 271.427836,66.1052741 C272.853313,66.1052741 273.983108,64.9724585 273.983108,63.5491304 L273.983108,51.4882981 C273.983108,48.4753739 273.090588,46.0069321 271.32015,44.1067252 L271.32015,44.1067252 Z M243.741464,57.5543432 C242.699278,57.3003732 241.58591,57.7005129 241.058428,58.6506164 C239.780792,60.9546172 237.625238,62.1057041 234.651997,62.1057041 C232.388756,62.1057041 230.525232,61.3730281 229.065077,59.8948864 C227.606747,58.4130905 226.874844,56.4580699 226.874844,54.0298248 C226.874844,51.6527391 227.606747,49.7159898 229.083329,48.1994785 C230.563561,46.6829672 232.407008,45.9338472 234.651997,45.9338472 C236.331175,45.9338472 237.791331,46.3723565 239.04889,47.2512022 C239.797219,47.7792404 240.399533,48.491818 240.874084,49.3688366 C241.31213,50.1727703 242.135293,50.6131067 243.011386,50.6131067 C243.266914,50.6131067 243.485937,50.5747371 243.723212,50.5199234 C244.836581,50.1910415 245.510077,49.1696803 245.510077,48.1081224 C245.510077,47.6513419 245.382314,47.1945614 245.126787,46.7743233 C244.343778,45.5318804 243.321669,44.4721496 242.042208,43.5585886 C239.888479,42.0238061 237.40804,41.2564149 234.651997,41.2564149 C231.127546,41.2564149 228.117801,42.4641425 225.61546,44.8558452 C223.133195,47.2694734 221.91214,50.31894 221.91214,54.0298248 C221.91214,57.7571537 223.133195,60.8248915 225.61546,63.2001501 C228.117801,65.59368 231.127546,66.7995805 234.651997,66.7995805 C237.479222,66.7995805 239.981564,66.013918 242.169972,64.4425931 C243.447608,63.5491304 244.469717,62.4693013 245.199794,61.2268584 C245.457147,60.8248915 245.566658,60.368111 245.566658,59.9296018 C245.566658,58.869871 244.873085,57.8485098 243.741464,57.5543432 L243.741464,57.5543432 Z M210.064804,59.9844154 C208.476885,61.5374691 206.633439,62.3048604 204.536291,62.3048604 C202.254798,62.3048604 200.374848,61.5557403 198.876363,60.0410562 C197.381529,58.5245449 196.6332,56.5311548 196.6332,54.0298248 C196.6332,51.5266677 197.381529,49.5150063 198.876363,47.9984951 C200.374848,46.5020821 202.254798,45.7346909 204.536291,45.7346909 C206.633439,45.7346909 208.476885,46.5020821 210.064804,48.0533087 C211.652723,49.5880912 212.457634,51.5796542 212.457634,54.0298248 C212.457634,56.4580699 211.652723,58.4514601 210.064804,59.9844154 L210.064804,59.9844154 Z M216.781519,42.6833972 C216.325221,42.2065183 215.686403,41.9342771 214.994654,41.9342771 C213.587429,41.9342771 212.457634,43.0670928 212.457634,44.4721496 L212.457634,44.7096755 C210.247324,42.4075017 207.327013,41.2564149 203.694876,41.2564149 C200.447856,41.2564149 197.637056,42.4641425 195.282556,44.8558452 C192.907978,47.2694734 191.723427,50.31894 191.723427,54.0298248 C191.723427,57.7571537 192.907978,60.8248915 195.264304,63.2001501 C197.598727,65.59368 200.429604,66.7995805 203.694876,66.7995805 C207.327013,66.7995805 210.247324,65.6302224 212.457634,63.3298758 L212.457634,63.5655745 C212.457634,64.9724585 213.587429,66.1052741 214.994654,66.1052741 C216.379977,66.1052741 217.511597,64.9724585 217.511597,63.5655745 L217.511597,44.4721496 C217.511597,43.7778432 217.237818,43.1401777 216.781519,42.6833972 L216.781519,42.6833972 Z M168.890246,51.6344679 C169.255285,49.7890746 170.147805,48.3292041 171.571457,47.3041887 C172.996934,46.2645563 174.546524,45.7346909 176.245779,45.7346909 C177.959637,45.7346909 179.439869,46.2444579 180.66275,47.2512022 C181.903882,48.2561193 182.723394,49.7159898 183.10851,51.6344679 L168.890246,51.6344679 Z M188.292062,53.0048094 C188.292062,52.9317245 188.292062,52.8769108 188.27381,52.8239243 C188.034709,49.5533759 186.811829,46.829137 184.641673,44.6914042 C182.323676,42.3910576 179.529304,41.2564149 176.245779,41.2564149 C172.741406,41.2564149 169.764515,42.4440442 167.355258,44.837574 C164.92775,47.2311038 163.724947,50.3024959 163.724947,54.0645401 C163.724947,58.3400056 165.312866,61.7220084 168.468627,64.2050672 C170.770197,66.0321893 173.725186,66.8726654 176.665574,66.7813093 C179.129586,66.6899532 181.301568,66.0504605 183.179693,64.8628312 C184.33139,64.1319824 185.316995,63.2001501 186.118255,62.0856057 C187.085608,60.7700779 186.355531,58.9082406 184.769437,58.5592603 L184.714681,58.540989 C183.818511,58.3582768 182.924165,58.7620708 182.376607,59.4910925 C180.934704,61.446113 178.837555,62.3962165 176.045008,62.3962165 C174.199737,62.3962165 172.575314,61.7567238 171.171739,60.4411959 C169.782766,59.1622105 168.963254,57.4081734 168.744231,55.2338982 L186.045248,55.2338982 C187.28638,55.2338982 188.27381,54.2472523 188.292062,53.0048094 L188.292062,53.0048094 Z M162.920036,33.4747022 L139.468115,33.4747022 C138.829297,33.4747022 138.226982,33.7286722 137.805363,34.1489103 C137.367316,34.5691483 137.093537,35.1556545 137.093537,35.8115913 C137.093537,37.1289463 138.172227,38.1868499 139.468115,38.1868499 L148.537505,38.1868499 L148.537505,63.4760456 C148.537505,64.186796 148.831361,64.8628312 149.304087,65.3378829 C149.780462,65.8129346 150.453959,66.1052741 151.16761,66.1052741 C152.607688,66.1052741 153.794065,64.9359161 153.794065,63.4760456 L153.794065,38.1868499 L162.920036,38.1868499 C163.578931,38.1868499 164.161168,37.9127816 164.599215,37.4925435 C165.020835,37.0723055 165.294614,36.4876264 165.294614,35.8115913 C165.294614,34.5143347 164.236001,33.4747022 162.920036,33.4747022 L162.920036,33.4747022 Z"></path>
            <path d="M260.594177,88.9037632 C260.594177,90.3713693 260.866505,91.7447504 261.411171,93.0239476 C261.955836,94.3031449 262.703501,95.4187071 263.654189,96.3706679 C264.604877,97.3226286 265.718948,98.0712948 266.996435,98.616689 C268.273922,99.1620831 269.645467,99.4347761 271.111111,99.4347761 C272.556949,99.4347761 273.918591,99.1620831 275.196078,98.616689 C276.473566,98.0712948 277.587636,97.3226286 278.538324,96.3706679 C279.489012,95.4187071 280.241629,94.3031449 280.796197,93.0239476 C281.350765,91.7447504 281.628045,90.3713693 281.628045,88.9037632 C281.628045,87.4559896 281.350765,86.0925246 280.796197,84.8133274 C280.241629,83.5341302 279.489012,82.4185679 278.538324,81.4666072 C277.587636,80.5146464 276.473566,79.7610222 275.196078,79.2057117 C273.918591,78.6504013 272.556949,78.3727503 271.111111,78.3727503 C269.645467,78.3727503 268.273922,78.6504013 266.996435,79.2057117 C265.718948,79.7610222 264.604877,80.5146464 263.654189,81.4666072 C262.703501,82.4185679 261.955836,83.5341302 261.411171,84.8133274 C260.866505,86.0925246 260.594177,87.4559896 260.594177,88.9037632 Z M260,88.9037632 C260,87.356827 260.292134,85.9090751 260.876411,84.5604641 C261.460688,83.211853 262.252916,82.0367941 263.253119,81.0352521 C264.253322,80.0337101 265.42681,79.2404214 266.773619,78.6553622 C268.120427,78.070303 269.566243,77.7777778 271.111111,77.7777778 C272.655979,77.7777778 274.101796,78.070303 275.448604,78.6553622 C276.795412,79.2404214 277.9689,80.0337101 278.969103,81.0352521 C279.969306,82.0367941 280.761534,83.211853 281.345811,84.5604641 C281.930088,85.9090751 282.222222,87.356827 282.222222,88.9037632 C282.222222,90.4506994 281.930088,91.8984513 281.345811,93.2470623 C280.761534,94.5956734 279.969306,95.7707323 278.969103,96.7722743 C277.9689,97.7738163 276.795412,98.562147 275.448604,99.1372899 C274.101796,99.7124328 272.655979,100 271.111111,100 C269.566243,100 268.120427,99.7124328 266.773619,99.1372899 C265.42681,98.562147 264.253322,97.7738163 263.253119,96.7722743 C262.252916,95.7707323 261.460688,94.5956734 260.876411,93.2470623 C260.292134,91.8984513 260,90.4506994 260,88.9037632 Z M271.051693,88.9930091 C271.487425,88.9930091 271.947908,88.9632607 272.433155,88.9037632 C272.918402,88.8442657 273.36403,88.7203143 273.770053,88.5319054 C274.176077,88.3434965 274.512773,88.0608874 274.780154,87.6840696 C275.047536,87.3072518 275.181224,86.8015303 275.181224,86.1668898 C275.181224,85.5719143 275.077244,85.090983 274.869281,84.7240815 C274.661318,84.35718 274.38899,84.0696128 274.052288,83.8613714 C273.715586,83.65313 273.324423,83.5093464 272.878788,83.4300164 C272.433153,83.3506863 271.97267,83.3110219 271.497326,83.3110219 L267.961973,83.3110219 L267.961973,88.9930091 L271.051693,88.9930091 Z M267.367796,82.7160494 L271.556744,82.7160494 C273.002582,82.7160494 274.067139,83.0184907 274.750446,83.6233824 C275.433753,84.2282741 275.775401,85.0761014 275.775401,86.1668898 C275.775401,86.7023677 275.686275,87.1733829 275.508021,87.5799494 C275.329767,87.986516 275.087148,88.3236637 274.780154,88.5914026 C274.473161,88.8591416 274.12161,89.0673799 273.72549,89.2161238 C273.32937,89.3648676 272.903548,89.4590707 272.44801,89.4987357 L276.369578,95.5079578 L275.626857,95.5079578 L271.794415,89.5582329 C271.715191,89.5780654 271.635968,89.5879816 271.556744,89.5879816 C271.47752,89.5879816 271.398297,89.5879816 271.319073,89.5879816 L267.961973,89.5879816 L267.961973,95.5079578 L267.367796,95.5079578 L267.367796,82.7160494 Z" fill-rule="nonzero"></path>
        </g>
    </g>
</svg>