<svg xmlns="http://www.w3.org/2000/svg" xmlns:xlink="http://www.w3.org/1999/xlink" width="48" height="48" viewBox="0 0 48 48">
  <defs>
    <circle id="group-a" cx="24" cy="24" r="24"/>
  </defs>
  <g fill="none" fill-rule="evenodd">
    <mask id="group-b" fill="#fff">
      <use xlink:href="#group-a"/>
    </mask>
    <use fill="#0F4747" xlink:href="#group-a"/>
    <g fill="#023838" mask="url(#group-b)">
      <g transform="translate(7 -5)">
        <path d="M17.1199525,0.000212431678 C17.0804558,7.08578787e-05 17.040934,0 17.0013871,0 C16.9613048,4.50838136e-18 16.9212482,7.27894602e-05 16.8812174,0.000218220578 C16.9211633,9.0262227e-05 16.9611149,0 17.001087,0 C17.040724,0 17.0803408,8.87551766e-05 17.1199372,0.000266078548 Z M34.0000061,46.7089365 C29.4121901,50.6313181 23.4763512,53 17.001087,53 C10.5252989,53 4.58852009,50.6309348 -6.17864857e-06,46.7079844 C2.6153498,40.1151857 9.65215455,37.0068526 17.0013871,37.0068526 C24.3509733,37.0068526 31.3818855,40.1154849 34,46.7089418 Z" opacity=".9"/>
        <path d="M17.5,16 C12.8065969,16 9,20.0305144 9,25 C9,29.9721011 12.8065969,34 17.5,34 C22.1934031,34 26,29.9721011 26,25 C26,20.0305144 22.1934031,16 17.5,16"/>
      </g>
    </g>
  </g>
</svg>
