<svg xmlns="http://www.w3.org/2000/svg" width="16" height="16" viewBox="0 0 16 16">
  <path fill="#FECA00" d="M750.8125,590.864583 C750.555556,591.704861 750.076389,592.381944 749.375,592.895833 C748.673611,593.409722 747.881944,593.666667 747,593.666667 C746.118056,593.666667 745.326389,593.409722 744.625,592.895833 C743.923611,592.381944 743.444444,591.704861 743.1875,590.864583 C743.131944,590.690972 743.145833,590.522569 743.229167,590.359375 C743.3125,590.196181 743.444444,590.086806 743.625,590.03125 C743.798611,589.975694 743.967014,589.989583 744.130208,590.072917 C744.293403,590.15625 744.402778,590.288194 744.458333,590.46875 C744.631944,591.024306 744.953125,591.473958 745.421875,591.817708 C745.890625,592.161458 746.416667,592.333333 747,592.333333 C747.583333,592.333333 748.109375,592.161458 748.578125,591.817708 C749.046875,591.473958 749.368056,591.024306 749.541667,590.46875 C749.597222,590.288194 749.708333,590.15625 749.875,590.072917 C750.041667,589.989583 750.211806,589.975694 750.385417,590.03125 C750.559028,590.086806 750.6875,590.196181 750.770833,590.359375 C750.854167,590.522569 750.868056,590.690972 750.8125,590.864583 Z M745.666667,586.333333 C745.666667,586.701389 745.536458,587.015625 745.276042,587.276042 C745.015625,587.536458 744.701389,587.666667 744.333333,587.666667 C743.965278,587.666667 743.651042,587.536458 743.390625,587.276042 C743.130208,587.015625 743,586.701389 743,586.333333 C743,585.965278 743.130208,585.651042 743.390625,585.390625 C743.651042,585.130208 743.965278,585 744.333333,585 C744.701389,585 745.015625,585.130208 745.276042,585.390625 C745.536458,585.651042 745.666667,585.965278 745.666667,586.333333 Z M751,586.333333 C751,586.701389 750.869792,587.015625 750.609375,587.276042 C750.348958,587.536458 750.034722,587.666667 749.666667,587.666667 C749.298611,587.666667 748.984375,587.536458 748.723958,587.276042 C748.463542,587.015625 748.333333,586.701389 748.333333,586.333333 C748.333333,585.965278 748.463542,585.651042 748.723958,585.390625 C748.984375,585.130208 749.298611,585 749.666667,585 C750.034722,585 750.348958,585.130208 750.609375,585.390625 C750.869792,585.651042 751,585.965278 751,586.333333 Z M753.666667,589 C753.666667,588.097222 753.489583,587.234375 753.135417,586.411458 C752.78125,585.588542 752.307292,584.880208 751.713542,584.286458 C751.119792,583.692708 750.411458,583.21875 749.588542,582.864583 C748.765625,582.510417 747.902778,582.333333 747,582.333333 C746.097222,582.333333 745.234375,582.510417 744.411458,582.864583 C743.588542,583.21875 742.880208,583.692708 742.286458,584.286458 C741.692708,584.880208 741.21875,585.588542 740.864583,586.411458 C740.510417,587.234375 740.333333,588.097222 740.333333,589 C740.333333,589.902778 740.510417,590.765625 740.864583,591.588542 C741.21875,592.411458 741.692708,593.119792 742.286458,593.713542 C742.880208,594.307292 743.588542,594.78125 744.411458,595.135417 C745.234375,595.489583 746.097222,595.666667 747,595.666667 C747.902778,595.666667 748.765625,595.489583 749.588542,595.135417 C750.411458,594.78125 751.119792,594.307292 751.713542,593.713542 C752.307292,593.119792 752.78125,592.411458 753.135417,591.588542 C753.489583,590.765625 753.666667,589.902778 753.666667,589 Z M755,589 C755,590.451389 754.642361,591.789931 753.927083,593.015625 C753.211806,594.241319 752.241319,595.211806 751.015625,595.927083 C749.789931,596.642361 748.451389,597 747,597 C745.548611,597 744.210069,596.642361 742.984375,595.927083 C741.758681,595.211806 740.788194,594.241319 740.072917,593.015625 C739.357639,591.789931 739,590.451389 739,589 C739,587.548611 739.357639,586.210069 740.072917,584.984375 C740.788194,583.758681 741.758681,582.788194 742.984375,582.072917 C744.210069,581.357639 745.548611,581 747,581 C748.451389,581 749.789931,581.357639 751.015625,582.072917 C752.241319,582.788194 753.211806,583.758681 753.927083,584.984375 C754.642361,586.210069 755,587.548611 755,589 Z" transform="translate(-739 -581)"/>
</svg>
