<svg xmlns="http://www.w3.org/2000/svg" xmlns:xlink="http://www.w3.org/1999/xlink" width="96" height="76" viewBox="0 0 96 76">
  <defs>
    <polygon id="teach-a" points="0 0 96 0 96 76 0 76"/>
  </defs>
  <g fill="none" fill-rule="evenodd">
    <mask id="teach-b" fill="#fff">
      <use xlink:href="#teach-a"/>
    </mask>
    <path fill="#FFF" d="M69.2153602,69.5115032 L60.983442,62.6229721 C57.4006039,64.5336718 52.8905988,65.6767541 48.0069675,65.6767541 C37.2292033,65.6767541 28.3339192,60.1549155 26.9779375,53.0155182 C26.8532115,52.3880745 26.7842259,51.7467246 26.7842259,51.1053748 C26.7842259,47.3540623 28.8455167,43.9520713 32.2070489,41.3861158 C36.0950795,38.4018644 41.6564257,36.5334393 47.9236329,36.5334393 C54.1908401,36.5334393 59.9188556,38.4018644 63.8063343,41.3861158 C67.1678665,43.9659775 69.2153602,47.3679684 69.2153602,51.1053748 L69.2153602,69.5115032 Z M94.9205127,25.4341378 L70.5989362,12.1593643 L48.9335826,0.25072718 C48.3248534,-0.0835757266 47.5776009,-0.0835757266 46.9688717,0.25072718 L25.2345325,12.1593643 L1.07907335,25.4196755 C-0.359691117,26.2011989 -0.359691117,28.2648657 1.07907335,29.0458329 L22.6886865,40.8560148 L22.6886865,52.5415979 C22.6886865,62.1490519 34.0199915,69.929799 48.0069675,69.929799 C53.8315629,69.929799 58.5766711,68.6888177 60.4999907,67.6569843 L69.9626127,75.5217244 C71.3047972,76.6369944 73.3108996,75.6746916 73.3108996,73.9458839 L73.3108996,40.8704772 L83.2718738,35.3619885 L83.2718738,44.5099845 C83.2718738,45.6530668 84.1846918,46.5736514 85.3055704,46.5736514 C86.4540433,46.5736514 87.3668613,45.6530668 87.3668613,44.5099845 L87.3668613,33.1314483 L94.9205127,29.0591828 C96.3598291,28.2921217 96.3598291,26.215105 94.9205127,25.4341378 L94.9205127,25.4341378 Z" mask="url(#teach-b)"/>
  </g>
</svg>
