<svg xmlns="http://www.w3.org/2000/svg" width="7" height="12" viewBox="0 0 7 12">
  <path fill="#3B5A99" d="M6.93954051,12 L6.94679565,6.81983071 L8.74607013,6.81983071 C8.90568319,6.81983071 9.04353083,6.69576784 9.05804111,6.53688029 L9.26118501,4.86819831 C9.28222491,4.67956469 9.1305925,4.51197098 8.94195889,4.51197098 L6.93954051,4.51197098 L6.93954051,3.11245466 C6.93954051,2.48125756 7.11366385,2.04594921 8.02781137,2.04594921 L8.8694075,2.04594921 C9.04353083,2.04594921 9.18863362,1.90810157 9.18863362,1.7267231 L9.18863362,0.319226119 C9.18863362,0.145102781 9.04353083,0 8.8694075,0 L7.49093108,0 C5.81499395,0 4.66868198,1.02297461 4.66868198,2.89480048 L4.66868198,4.51197098 L3.31922612,4.51197098 C3.14510278,4.51197098 3,4.65779927 3,4.83192261 L3.00725514,6.50060459 C3.00725514,6.67472793 3.15235792,6.81983071 3.32648126,6.81983071 L4.67593712,6.81983071 L4.66868198,12 L6.93954051,12 Z" transform="translate(-3)"/>
</svg>
