<svg xmlns="http://www.w3.org/2000/svg" width="12" height="12" viewBox="0 0 12 12">
  <path fill="#DC4F42" d="M0.00376010538,6.00740093 C-0.0489189046,8.5107714 1.71093067,10.8997628 4.1317827,11.6788888 C6.41206913,12.429485 9.21570436,11.8679644 10.7330717,9.9546444 C11.8409192,8.6139978 12.0926666,6.8267283 11.9727491,5.15695013 C10.0199196,5.1398322 8.06709015,5.1455382 6.11717258,5.14839113 C6.11399595,5.82999675 6.11717258,6.5090088 6.12008445,7.19061435 C7.28934675,7.22225663 8.45887373,7.20773235 9.62813596,7.23081563 C9.33297466,8.22184118 8.66058931,9.14413553 7.64009895,9.50205623 C5.66979803,10.3527665 3.15576503,9.2413965 2.53579395,7.21629128 C1.78743436,5.27703518 3.01255223,2.93680403 5.03526743,2.37268973 C6.28950443,1.94033186 7.5815961,2.42715593 8.65476556,3.0659667 C9.19849763,2.56747125 9.70728683,2.03473994 10.2070756,1.49630263 C8.98778161,0.496718146 7.4209119,-0.116156309 5.81009895,0.0184530088 C2.64962303,0.0552825463 -0.116157447,2.91398003 0.00376010538,6.00740093 Z"/>
</svg>
