<svg xmlns="http://www.w3.org/2000/svg" width="12" height="10" viewBox="0 0 12 10">
  <path fill="#56ACEE" d="M10.771855,3.42217484 C11.249467,3.07249467 11.6673774,2.63752665 12,2.15138593 C11.5565032,2.33816631 11.0788913,2.47547974 10.5842217,2.53518124 C11.0959488,2.22814499 11.4797441,1.75053305 11.6673774,1.1782516 C11.1897655,1.45970149 10.6609808,1.66439232 10.1066098,1.77526652 C9.65458422,1.29850746 9.01492537,1 8.30703625,1 C6.95095949,1 5.84221748,2.09083156 5.84221748,3.44690832 C5.84221748,3.64392324 5.86780384,3.83070362 5.91044776,4.0098081 C3.86353945,3.90746269 2.04690832,2.92750533 0.835820896,1.4434968 C0.622601279,1.80938166 0.503198294,2.22814499 0.503198294,2.68017058 C0.503198294,3.53304904 0.938166311,4.28358209 1.59488273,4.71855011 C1.19402985,4.71002132 0.810234542,4.59914712 0.486140725,4.41151386 C0.47761194,4.42857143 0.47761194,4.43624733 0.47761194,4.44477612 C0.47761194,5.63113006 1.33049041,6.62899787 2.45628998,6.85074627 C2.25159915,6.91044776 2.02985075,6.93518124 1.80810235,6.93518124 C1.64605544,6.93518124 1.49253731,6.91897655 1.34754797,6.89253731 C1.65458422,7.86567164 2.56716418,8.58208955 3.64179104,8.59829424 C2.80597015,9.25586354 1.73987207,9.64818763 0.588486141,9.64818763 C0.392324094,9.64818763 0.196162047,9.63965885 0,9.61407249 C1.09168443,10.3134328 2.37953092,10.7142857 3.76972281,10.7142857 C8.29850746,10.7142857 10.7803838,6.97867804 10.7803838,3.73688699 C10.7803838,3.62686567 10.771855,3.52366738 10.771855,3.42217484 Z" transform="translate(0 -1)"/>
</svg>
